<?xml version="1.0" encoding="utf-8" ?>
<svg xmlns="http://www.w3.org/2000/svg" xmlns:cc="http://creativecommons.org/ns" xmlns:dc="http://purl.org/dc/elements/1.1/" xmlns:ev="http://www.w3.org/2001/xml-events" xmlns:inkscape="http://www.inkscape.org/namespaces/inkscape" xmlns:rdf="http://www.w3.org/1999/02/22-rdf-syntax-ns" xmlns:sodipodi="http://sodipodi.sourceforge.net/DTD/sodipodi-0.dtd" xmlns:xlink="http://www.w3.org/1999/xlink" baseProfile="tiny" height="29.7cm" version="1.2" viewBox="0 0 793.7007874015749 1122.5196850393702" width="21.0cm">
  <metadata>
    <rdf:RDF>
      <cc:Work>
        <dc:format>image/svg+xml</dc:format>
        <dc:source>Generated with vsketch</dc:source>
        <dc:date>2025-11-15T12:41:09.921400</dc:date>
      </cc:Work>
    </rdf:RDF>
  </metadata>
  <defs/>
  <g fill="none" id="layer1" inkscape:groupmode="layer" inkscape:label="1" stroke="#0000ff" style="display:inline">
    <polyline points="76.8188,93.9387 67.1313,96.4387 64.6313,96.4387 63.0688,94.5637 63.6938,88.9387 67.1313,82.6887 70.5688,79.2512 74.3188,77.3762 81.8188,76.4387 85.5688,77.6887 88.6938,81.4387 89.3188,87.3762 86.1938,92.3762 83.0688,94.5637 77.7563,95.5012 72.7563,95.1887"/>
    <polyline points="67.7563,92.3762 78.0688,90.5012 80.5688,87.0637 78.6938,85.1887 76.5063,86.1262 79.3188,87.3762"/>
    <polyline points="79.9438,82.3762 69.6313,64.8762 68.3813,65.1887 63.0688,71.4387 64.3188,79.8762 65.8813,81.7512"/>
    <line x1="69.3188" x2="69.0063" y1="83.3137" y2="83.9387"/>
    <line x1="79.3188" x2="79.6313" y1="80.1887" y2="80.1887"/>
    <polyline points="84.3188,77.0637 93.0688,62.6887 91.1938,85.8137"/>
    <polyline points="83.3813,90.5012 83.3813,96.7512 78.3813,113.0012 75.2563,128.0012 65.5688,128.0012 57.7563,129.8762"/>
    <polyline points="57.1313,129.8762 62.4438,106.7512 62.4438,95.1887"/>
    <polyline points="73.3813,123.6262 79.9438,121.4387 88.6938,116.1262 95.8813,108.0012 99.6313,95.8137 104.9438,91.4387 110.5688,90.5012 108.0688,100.1887 94.3188,118.9387 89.0063,123.3137 82.7563,126.4387 77.7563,126.7512 73.6938,125.5012"/>
    <polyline points="72.4438,127.6887 71.5063,140.8137 70.2563,142.3762 68.0688,142.0637 69.0063,128.0012"/>
    <polyline points="64.9438,130.5012 62.4438,140.8137 59.9438,142.3762 57.1313,142.0637 58.3813,130.8137"/>
    <polyline points="69.3188,205.0037 64.6313,211.5662 63.3813,218.7537 65.8813,226.5662 68.3813,231.2537 71.8188,234.6912 74.3188,235.9412 79.9438,236.8787 87.4438,236.8787 92.4438,235.3162 95.5688,233.4412 100.8813,227.5037 101.5063,217.5037 99.9438,209.3787 99.3188,198.1287 98.3813,194.3787 97.4438,193.7537 93.6938,196.5662 87.7563,204.6912 84.0063,202.8162 78.3813,202.8162 68.3813,206.5662 67.1313,202.1912 63.0688,195.9412 62.1313,197.8162 61.1938,214.3787 61.8188,216.8787 64.9438,218.7537"/>
    <polyline points="68.3813,225.9412 60.5688,225.0037 57.1313,226.8787"/>
    <line x1="61.1938" x2="68.6938" y1="233.1287" y2="231.2537"/>
    <line x1="77.4438" x2="82.1313" y1="229.0662" y2="222.1912"/>
    <line x1="80.2563" x2="89.0063" y1="223.7537" y2="230.3162"/>
    <polyline points="98.6938,228.1287 106.1938,226.8787 111.1938,226.8787 114.0063,228.1287"/>
    <polyline points="114.3188,220.0037 108.0688,219.6912 98.3813,223.1287"/>
    <polyline points="90.2563,213.1287 87.4438,213.7537 85.5688,216.2537 86.5063,218.7537 89.9438,220.6287 90.5688,218.1287 89.0063,213.7537 87.7563,213.4412 85.5688,214.0662"/>
    <polyline points="74.0063,214.3787 74.9438,216.2537 74.6313,219.6912 72.1313,219.6912 70.8813,218.1287 71.1938,214.6912 73.0688,212.5037"/>
    <polyline points="134.6313,213.7537 134.0063,210.0037 136.8188,198.1287"/>
    <polyline points="182.0814,235.0037 193.6439,242.8162 201.7689,250.0037"/>
    <polyline points="202.7064,255.6287 196.1439,255.9412 177.0814,251.8787"/>
    <line x1="182.3939" x2="204.8939" y1="262.1912" y2="261.5662"/>
    <line x1="212.7064" x2="212.7064" y1="253.4412" y2="244.0662"/>
    <polyline points="217.3939,248.7537 226.1439,249.0662 231.4564,248.1287 240.5189,242.8162"/>
    <line x1="237.3939" x2="237.3939" y1="238.7537" y2="238.7537"/>
    <polyline points="244.5814,238.1287 248.6439,237.8162 248.3314,200.3162 245.8314,203.1287 240.2064,205.9412 221.4564,210.6287"/>
    <polyline points="227.0814,212.5037 230.2064,213.1287 233.0189,216.2537 239.8939,230.0037 238.9564,257.8162 234.8939,267.5037 231.4564,271.2537 225.5189,273.4412 215.8314,273.1287 209.8939,271.5662 199.2689,267.1912 190.8314,259.6912 187.7064,254.6912 186.1439,248.7537 186.7689,231.8787 189.5814,223.1287 194.5814,216.5662 201.7689,213.1287 216.1439,211.8787 219.5814,213.4412 221.4564,216.8787"/>
    <polyline points="219.5814,226.2537 222.0814,225.9412 225.2064,228.4412 225.2064,234.0662 223.3314,237.8162 218.0189,240.0037 219.5814,233.4412 223.0189,229.0662 224.5814,228.7537"/>
    <polyline points="214.2689,226.5662 212.3939,225.6287 207.0814,225.6287 204.8939,227.1912 201.7689,232.8162 201.7689,239.0662 207.7064,239.0662 212.3939,235.6287 214.2689,230.0037 214.2689,226.2537 212.7064,225.6287"/>
    <polyline points="211.7689,213.1287 208.3314,211.5662 189.2689,199.0662 183.0189,193.7537 181.1439,198.4412 180.5189,203.4412 180.5189,220.3162 182.7064,232.5037 186.4564,237.5037"/>
    <polyline points="220.8314,256.5662 226.1439,257.8162 247.3939,254.6912"/>
    <polyline points="250.5189,265.6287 249.2689,266.8787 243.6439,267.1912 223.6439,266.5662"/>
    <polyline points="298.5941,227.5037 297.3441,229.0662 297.3441,230.6287 300.4691,238.4412 305.7816,243.7537 316.4066,249.6912 335.1566,257.1912 346.0941,260.0037 359.8441,260.0037 365.4691,258.7537 370.4691,256.5662 374.8441,253.4412 376.7191,250.3162 376.4066,244.6912 374.2191,238.7537 369.2191,230.6287 365.7816,227.1912 355.4691,222.1912 346.4066,220.0037 329.2191,220.0037 314.8441,222.8162"/>
    <polyline points="317.3441,212.8162 317.9691,195.0037 314.2191,200.9412 313.2816,207.8162"/>
    <polyline points="315.1566,203.1287 310.7816,202.8162 304.8441,205.0037 301.0941,209.3787 297.0316,220.9412 297.0316,225.3162 299.2191,228.4412 302.3441,230.0037 311.0941,229.3787 314.5316,226.8787 316.7191,223.1287 317.9691,216.2537 316.7191,212.1912 314.5316,209.0662 307.0316,205.0037 303.5941,204.6912 299.5316,206.5662"/>
    <polyline points="300.4691,208.4412 298.9066,193.7537 305.4691,206.2537"/>
    <line x1="317.0316" x2="317.0316" y1="249.0662" y2="249.0662"/>
    <polyline points="326.4066,346.0687 322.3441,346.3812 320.1566,347.9437 314.2191,365.4437 312.3441,377.3187 313.2816,390.4437 316.0941,396.3812 319.8441,400.4437 324.8441,403.2562 328.9066,404.5062 333.5941,404.5062 338.9066,401.3812 346.7191,389.5062 351.4066,377.0062 352.9691,365.7562 351.7191,355.4437 349.8441,350.7562 346.7191,347.3187 339.2191,344.8187 335.7816,344.8187 332.3441,345.7562 330.1566,347.6312"/>
    <polyline points="344.5316,346.0687 350.4691,328.2562 352.9691,324.8187 354.8441,327.9437 355.7816,335.1312 356.0941,357.0062"/>
    <polyline points="354.8441,360.7562 354.5316,372.3187 353.5941,375.4437 352.0316,377.3187 347.6566,380.4437 343.9066,380.7562 337.0316,379.1937 337.0316,380.4437"/>
    <polyline points="337.6566,377.6312 336.4066,379.8187 335.4691,387.9437 333.2816,391.0687 330.1566,393.5687 324.2191,394.5062 317.9691,391.0687 316.4066,388.5687"/>
    <polyline points="315.1566,374.1937 312.0316,373.8812 309.2191,369.1937 301.7191,350.7562 297.0316,334.8187 309.5316,350.4437 317.0316,355.7562"/>
    <polyline points="328.5941,374.1937 333.9066,373.2562 341.0941,369.5062 335.7816,381.0687 331.0941,378.8812 328.9066,375.7562"/>
    <polyline points="256.7689,385.4437 241.4564,382.3187 232.7064,381.6937"/>
    <polyline points="225.2064,385.4437 232.0814,390.1312 231.7689,395.4437 233.6439,397.0062"/>
    <polyline points="221.7689,397.6312 221.7689,403.2562 217.3939,392.3187"/>
    <polyline points="218.6439,381.6937 217.0814,380.7562 216.1439,377.3187 215.8314,378.2562 213.6439,377.0062"/>
    <polyline points="213.6439,376.6937 210.5189,378.5687 209.2689,377.9437"/>
    <polyline points="202.7064,377.3187 201.1439,372.9437 190.2064,358.2562"/>
    <line x1="210.2064" x2="211.1439" y1="362.9437" y2="362.9437"/>
    <line x1="212.0814" x2="212.0814" y1="366.0687" y2="366.0687"/>
    <line x1="216.4564" x2="216.4564" y1="374.5062" y2="374.5062"/>
    <polyline points="219.2689,355.7562 212.7064,345.7562 213.0189,339.5062 209.5814,334.1937 211.7689,351.6937 205.2064,357.3187 190.8314,377.3187 192.0814,381.6937 194.8939,386.6937 200.5189,390.7562 208.9564,394.5062 226.1439,395.4437 228.3314,394.5062 236.4564,387.9437 239.5814,384.1937 246.1439,372.6312 248.3314,365.7562 246.4564,357.3187 240.2064,344.5062 238.6439,342.9437 237.0814,334.1937 233.9564,324.8187 232.3939,327.3187 230.5189,341.3812 227.7064,346.0687 227.0814,350.1312 225.2064,351.0687 225.8314,350.1312 221.1439,356.0687"/>
    <line x1="239.8939" x2="239.8939" y1="367.0062" y2="367.3187"/>
    <polyline points="197.3939,378.8812 177.0814,380.1312 178.0189,381.0687"/>
    <line x1="187.0814" x2="194.8939" y1="387.3187" y2="385.1312"/>
    <line x1="136.8188" x2="115.8813" y1="377.3187" y2="370.1312"/>
    <polyline points="114.3188,364.8187 129.9438,360.1312 136.5063,359.5062"/>
    <line x1="114.9438" x2="132.1313" y1="377.9437" y2="391.0687"/>
    <polyline points="80.2563,376.0687 69.3188,378.5687 63.6938,381.0687"/>
    <polyline points="64.0063,371.6937 65.5688,370.4437 79.3188,369.8187"/>
    <polyline points="78.6938,363.8812 66.1938,356.0687 59.3188,353.2562 57.1313,353.5687"/>
    <polyline points="77.1313,354.8187 75.5688,331.6937 89.3188,347.6312"/>
    <polyline points="89.0063,347.0062 94.9438,348.5687 102.4438,348.8812 108.0688,332.3187 112.7563,324.8187 117.4438,344.8187 125.8813,348.8812 130.5688,353.5687 131.8188,361.6937 128.6938,371.6937 121.8188,381.3812 112.4438,389.1937 102.1313,392.9437 91.1938,393.5687 80.2563,389.8187 74.3188,386.6937 69.9438,382.6312 64.0063,371.3812 62.7563,361.6937 65.2563,358.2562 78.6938,352.3187"/>
    <polyline points="91.5063,475.5711 89.6313,475.8836 88.0688,471.8211 83.6938,466.5086 62.7563,455.8836 62.1313,458.3836 65.5688,469.0086 74.0063,487.7586"/>
    <polyline points="83.0688,485.2586 82.7563,484.0086 84.3188,486.8211 82.4438,486.5086 82.4438,485.5711 85.2563,485.8836 86.8188,487.1336 87.1313,488.6961"/>
    <polyline points="81.1938,500.5711 70.8813,491.1961 69.3188,488.3836 69.3188,485.8836 69.6313,484.3211 73.6938,480.8836 84.3188,475.5711 107.4438,474.6336 116.1938,478.3836 118.0688,480.5711 120.5688,486.5086 119.6313,492.4461 118.3813,494.0086 116.8188,493.6961"/>
    <polyline points="124.9438,492.1336 131.8188,486.5086 120.8813,489.9461 104.3188,499.9461"/>
    <polyline points="103.0688,500.5711 97.4438,500.2586 95.2563,502.1336 95.2563,506.1961 97.4438,510.8836 99.3188,512.4461 104.9438,504.3211 105.8813,500.2586"/>
    <polyline points="107.4438,504.9461 105.8813,504.6336 107.4438,503.6961 114.9438,501.1961 123.3813,499.6336"/>
    <polyline points="119.9438,485.5711 120.5688,476.5086 124.0063,456.5086 119.3188,457.4461 107.1313,470.2586 102.1313,476.8211"/>
    <polyline points="109.0063,480.8836 109.6313,482.4461 110.5688,481.5086 110.2563,480.2586"/>
    <polyline points="94.0063,503.3836 80.2563,500.2586 59.3188,499.9461"/>
    <polyline points="57.1313,510.8836 75.2563,508.6961 92.7563,508.0711"/>
    <polyline points="69.3188,518.6961 93.0688,511.8211 98.3813,511.1961 104.3188,508.6961 115.5688,507.1336 130.2563,506.8211 136.8188,507.7586"/>
    <polyline points="177.3939,492.4461 178.0189,465.8836 179.5814,455.8836 184.8939,460.8836 191.4564,476.1961 193.3314,477.4461 195.2064,477.4461"/>
    <polyline points="196.7689,491.8211 195.2064,492.1336 193.9564,494.0086 193.9564,496.5086 198.0189,500.5711 199.5814,497.7586 198.6439,491.8211"/>
    <polyline points="211.1439,479.6336 200.5189,479.3211 191.4564,482.1336 184.2689,488.0711 178.9564,497.7586 177.7064,502.4461 177.0814,512.1336 179.5814,520.8836 183.3314,526.5086 186.4564,529.3211 195.2064,533.6961 210.2064,535.5711 222.3939,534.0086 233.0189,527.7586 238.0189,522.1336 241.4564,515.8836 242.7064,503.0711 240.8314,496.5086 237.7064,491.8211 233.6439,488.0711 227.7064,484.3211 214.5814,481.1961"/>
    <polyline points="223.3314,482.1336 228.0189,476.1961 235.2064,462.4461 237.7064,460.2586 239.5814,463.0711 241.4564,474.0086 241.1439,482.7586 238.9564,490.5711"/>
    <polyline points="222.3939,493.0711 219.5814,495.5711 218.6439,500.2586 221.1439,503.6961 222.3939,498.0711 219.8939,494.3211"/>
    <line x1="216.7689" x2="232.3939" y1="519.0086" y2="519.6336"/>
    <line x1="202.3939" x2="192.0814" y1="517.1336" y2="517.4461"/>
    <polyline points="203.6439,615.6986 201.1439,615.6986 192.3939,621.9486 189.5814,624.4486 186.7689,628.8236 182.3939,641.9486 183.0189,650.0736 184.8939,654.1361 190.5189,660.3861 201.4564,665.6986 225.5189,666.6361 230.5189,663.8236 235.2064,659.1361 238.0189,654.4486 241.4564,639.7611 241.1439,630.0736 235.2064,621.6361 233.0189,619.7611 228.3314,617.2611 212.0814,614.4486 201.1439,613.5111 189.2689,597.2611 178.6439,587.2611 177.0814,589.4486 177.0814,592.2611 179.8939,611.9486 181.7689,621.3236 185.8314,629.1361"/>
    <polyline points="205.8314,630.3861 203.6439,630.6986 205.5189,631.3236 201.4564,631.3236 206.1439,630.0736"/>
    <line x1="207.7064" x2="207.7064" y1="637.5736" y2="637.5736"/>
    <polyline points="210.8314,637.5736 209.8939,646.6361 212.7064,647.5736"/>
    <polyline points="223.0189,633.8236 220.8314,635.0736 224.5814,635.0736 223.6439,633.5111"/>
    <polyline points="237.3939,623.8236 240.2064,619.1361 252.0814,589.7611 251.1439,586.9486 221.7689,608.5111 216.1439,614.7611 213.6439,616.0111"/>
    <polyline points="135.5688,603.1986 136.8188,602.8861 135.5688,601.9486 125.5688,601.3236"/>
    <line x1="124.3188" x2="129.9438" y1="601.9486" y2="604.4486"/>
    <line x1="128.3813" x2="121.5063" y1="606.6361" y2="603.1986"/>
    <line x1="117.1313" x2="108.6938" y1="603.1986" y2="606.0111"/>
    <line x1="106.8188" x2="117.1313" y1="603.8236" y2="601.9486"/>
    <polyline points="117.4438,601.0111 112.1313,600.0736 107.7563,601.0111"/>
    <polyline points="110.8813,597.5736 99.3188,598.8236 93.6938,602.2611 87.4438,602.2611 80.2563,600.3861 61.1938,588.5111 57.4438,590.6986 57.4438,593.5111 61.8188,595.3861 69.3188,595.0736 72.7563,597.2611 73.6938,599.7611 77.4438,602.8861 77.7563,604.1361 74.0063,606.9486 73.3813,609.7611 75.2563,615.0736 78.0688,618.1986 82.4438,616.3236 82.4438,612.8861 84.6313,617.5736 93.0688,618.5111 109.0063,614.7611 110.2563,611.3236 110.2563,616.0111 111.8188,617.8861 114.3188,616.3236 114.9438,605.6986"/>
    <line x1="116.8188" x2="116.8188" y1="597.2611" y2="597.2611"/>
    <line x1="119.0063" x2="119.0063" y1="597.2611" y2="597.5736"/>
    <polyline points="118.6938,595.3861 117.1313,592.8861 115.5688,592.2611 112.4438,595.0736 111.5063,600.3861 112.4438,602.5736 114.6313,604.7611 118.0688,606.0111 123.0688,605.6986 127.1313,604.1361 129.9438,600.6986 128.6938,597.2611 125.5688,595.3861 121.5063,594.1361 116.8188,594.7611"/>
    <polyline points="119.0063,591.6361 115.8813,586.9486 112.4438,593.5111"/>
    <polyline points="125.5688,595.6986 131.1938,591.3236 131.8188,596.3236 130.8813,597.5736"/>
    <line x1="126.8188" x2="126.8188" y1="598.1986" y2="598.1986"/>
    <polyline points="136.8188,728.951 109.9438,744.576 101.8188,751.7635"/>
    <polyline points="105.5688,754.8885 113.0688,756.451 124.6313,760.826"/>
    <polyline points="114.0063,772.3885 109.0063,767.076 103.3813,763.6385 100.5688,760.5135"/>
    <polyline points="77.7563,763.326 72.4438,775.5135 71.1938,780.826"/>
    <polyline points="69.0063,767.076 80.2563,770.201 89.0063,769.576 97.4438,766.7635 104.0063,762.701 106.1938,758.326 106.1938,752.701 103.6938,744.576 101.5063,742.076 91.5063,735.5135 86.5063,735.201 74.9438,738.0135 63.3813,747.076 59.0063,756.451 59.6313,759.2635 61.8188,762.3885 70.2563,766.451"/>
    <polyline points="74.9438,757.3885 68.0688,760.5135 59.9438,765.201"/>
    <line x1="57.1313" x2="78.3813" y1="754.2635" y2="753.0135"/>
    <polyline points="67.4438,743.326 69.3188,734.2635 69.9438,721.7635 78.6938,733.326"/>
    <polyline points="83.6938,733.6385 89.0063,718.0135 92.1313,722.3885 94.9438,734.576"/>
    <polyline points="182.0814,766.7635 189.5814,762.3885 197.3939,760.5135 204.5814,760.5135"/>
    <line x1="206.1439" x2="206.1439" y1="754.576" y2="754.576"/>
    <polyline points="203.6439,745.5135 194.8939,749.2635 189.8939,755.826 186.4564,764.2635 186.1439,772.3885 187.7064,776.1385 194.2689,784.2635 201.1439,788.6385 212.0814,791.7635 224.5814,791.451 240.5189,783.0135 245.5189,777.076 246.7689,770.826 246.7689,763.326 243.6439,755.201 237.7064,748.6385 228.3314,744.8885 208.3314,744.2635 200.2064,746.7635"/>
    <polyline points="197.7064,748.6385 194.8939,746.7635 190.2064,739.576 187.7064,724.576 188.0189,719.576 195.8314,728.0135 206.4564,743.6385"/>
    <polyline points="200.5189,768.0135 187.7064,772.3885 180.2064,778.326 177.0814,781.7635"/>
    <polyline points="181.4564,788.6385 184.2689,784.576 188.6439,780.5135 196.4564,775.826 200.2064,774.576"/>
    <polyline points="232.3939,774.8885 234.2689,774.576 240.8314,778.0135 248.6439,785.201"/>
    <polyline points="248.0189,791.7635 242.3939,783.326 238.6439,779.576"/>
    <line x1="234.5814" x2="256.7689" y1="762.701" y2="764.2635"/>
    <polyline points="243.6439,758.0135 244.8939,744.2635 250.2064,725.5135 250.5189,718.0135 246.4564,725.5135 236.4564,739.2635 233.6439,745.5135"/>
    <polyline points="302.3441,769.8885 312.6566,770.5135 329.8441,773.6385"/>
    <polyline points="330.7816,773.0135 332.6566,774.2635 332.6566,776.1385 331.7191,778.326 329.8441,778.0135 329.5316,774.8885 331.4066,773.951"/>
    <polyline points="331.0941,773.6385 341.0941,773.951 356.0941,772.076"/>
    <line x1="357.6566" x2="332.6566" y1="775.826" y2="775.5135"/>
    <polyline points="333.5941,777.076 344.5316,779.8885 361.7191,780.826"/>
    <polyline points="338.5941,778.951 337.0316,785.201 335.7816,786.1385 332.6566,782.076 331.4066,777.076"/>
    <polyline points="331.0941,778.326 330.7816,783.326 326.7191,784.576 321.7191,783.6385 319.8441,779.2635"/>
    <line x1="314.5316" x2="329.5316" y1="778.0135" y2="777.076"/>
    <line x1="329.2191" x2="312.6566" y1="774.8885" y2="775.201"/>
    <polyline points="317.0316,755.826 322.0316,758.951 324.8441,763.6385 323.9066,764.8885 317.9691,763.951 314.8441,760.201 314.8441,756.1385 316.4066,755.201"/>
    <polyline points="307.0316,748.951 299.2191,722.701 297.0316,718.0135 301.0941,723.0135 314.8441,735.201"/>
    <polyline points="332.3441,737.076 336.4066,738.951 345.1566,746.7635 351.7191,755.5135 356.7191,764.576 359.5316,772.076 361.0941,780.5135 360.1566,786.7635 356.7191,791.1385 342.6566,796.7635 328.9066,797.3885 323.2816,795.826 316.0941,791.1385 309.8441,783.951 306.4066,778.0135 303.9066,769.576 303.9066,762.3885 306.4066,753.0135 311.7191,741.7635 315.7816,736.451 322.0316,732.701 331.7191,732.3885 335.7816,733.951"/>
    <polyline points="339.5316,743.951 342.6566,741.7635 356.7191,721.7635 355.1566,756.1385"/>
    <polyline points="343.2816,760.826 341.7191,761.1385 340.4691,763.0135 340.1566,764.8885 341.4066,766.451 344.2191,767.076 348.2816,765.201 348.5941,764.2635 346.0941,761.1385 341.7191,759.576"/>
    <polyline points="416.9817,752.701 429.4817,753.0135 447.9192,757.3885 451.3567,757.3885"/>
    <polyline points="453.8567,756.1385 459.4817,763.0135 461.3567,754.576 454.7942,754.576"/>
    <polyline points="452.9192,761.7635 447.6067,763.951 438.5442,766.1385"/>
    <line x1="443.2317" x2="428.2317" y1="761.1385" y2="762.076"/>
    <polyline points="445.7317,773.0135 450.1067,772.076 453.2317,769.576 453.8567,767.3885"/>
    <polyline points="457.6067,770.5135 461.6692,772.3885 465.1067,772.701 466.9817,770.201"/>
    <line x1="465.1067" x2="486.6692" y1="763.951" y2="764.8885"/>
    <line x1="492.9192" x2="469.1692" y1="758.6385" y2="758.6385"/>
    <polyline points="464.7942,758.951 476.0442,751.451 491.0442,746.451"/>
    <line x1="446.6692" x2="446.6692" y1="744.2635" y2="744.2635"/>
    <polyline points="438.5442,738.326 441.6692,734.576 451.9817,728.6385 459.7942,728.951 466.3567,732.701 470.7317,732.3885 473.5442,730.201 479.4817,723.0135 485.1067,718.0135 486.0442,736.451 486.6692,737.3885 492.6067,738.326 493.8567,739.576 496.3567,745.5135 496.3567,753.326 495.1067,761.1385 491.9817,765.201 468.2317,776.451 458.8567,778.326 447.9192,778.326 433.5442,776.1385 427.6067,772.3885 422.6067,766.451 421.3567,761.7635 421.6692,757.701 426.6692,748.6385 418.8567,726.1385 419.4817,724.576 423.2317,726.1385 436.6692,737.701"/>
    <polyline points="538.1818,747.3885 540.3693,724.2635 542.2443,718.951 549.4318,726.7635 554.1193,738.951"/>
    <polyline points="554.7443,739.2635 563.4943,733.951 572.8693,731.451 580.3693,731.451 585.9943,734.576"/>
    <polyline points="586.6193,733.951 591.9318,728.6385 604.7443,718.0135 605.3693,722.076 601.6193,745.5135"/>
    <polyline points="607.2443,743.0135 606.9318,748.6385 602.5568,761.451 589.4318,779.8885 585.0568,784.8885 577.2443,791.451 566.3068,796.7635 562.2443,797.701 548.4943,795.201 544.1193,792.701 541.9318,788.951 538.8068,778.326 537.2443,769.576 536.9318,753.951 538.1818,748.0135"/>
    <line x1="542.5568" x2="559.4318" y1="756.1385" y2="753.326"/>
    <polyline points="572.5568,752.3885 577.2443,751.451 586.3068,752.076"/>
    <polyline points="578.4943,776.7635 571.6193,779.8885 552.2443,779.8885"/>
    <polyline points="551.9318,778.326 559.1193,773.6385 563.4943,772.3885 571.3068,773.6385 577.8693,777.3885"/>
    <polyline points="557.8693,872.516 551.3068,863.4535 550.0568,859.7035 550.3693,856.266 557.2443,860.641 564.1193,870.016 569.4318,869.0785 584.1193,870.016 590.0568,855.641 594.4318,849.0785 595.9943,849.0785 597.8693,851.891 597.5568,870.9535 601.3068,874.391 605.3693,880.9535 605.6818,888.141 604.7443,891.891 598.8068,900.641 593.1818,905.016 588.1818,907.2035 574.7443,910.641 566.6193,910.3285 561.9318,909.0785 552.2443,904.0785 548.8068,898.141 549.7443,887.2035 552.5568,880.9535 556.9318,875.3285"/>
    <polyline points="560.9943,885.9535 551.6193,886.266 547.2443,887.8285 539.4318,893.4535 536.9318,898.4535"/>
    <polyline points="543.4943,910.016 546.3068,903.4535 549.7443,898.766 553.1818,895.9535 560.6818,894.7035"/>
    <polyline points="578.1818,890.016 577.8693,888.4535 579.7443,887.8285"/>
    <polyline points="592.2443,895.9535 595.0568,894.391 598.1818,894.391 603.1818,895.9535 616.6193,905.9535"/>
    <polyline points="614.4318,885.9535 601.6193,885.9535 595.9943,887.8285 594.7443,889.391"/>
    <polyline points="656.882,886.5785 668.4445,883.766 687.507,883.141"/>
    <line x1="689.6945" x2="660.632" y1="879.7035" y2="872.8285"/>
    <line x1="682.1945" x2="682.1945" y1="864.7035" y2="864.0785"/>
    <polyline points="696.882,874.0785 696.882,888.141 694.382,894.391 691.5695,895.641 689.0695,894.391 683.132,887.516"/>
    <line x1="683.757" x2="668.4445" y1="887.516" y2="897.516"/>
    <polyline points="699.382,876.5785 700.632,889.391 703.4445,894.0785 705.9445,894.391 709.0695,893.141 712.507,885.3285"/>
    <polyline points="710.632,885.9535 718.4445,888.4535 736.5695,896.891"/>
    <line x1="736.257" x2="711.257" y1="883.141" y2="880.3285"/>
    <line x1="710.9445" x2="733.132" y1="877.8285" y2="870.3285"/>
    <polyline points="726.5695,871.5785 728.757,875.3285 729.382,879.7035 727.507,887.8285 721.5695,896.891 713.757,901.5785 704.6945,902.8285 694.6945,901.266 679.0695,894.391 672.507,888.141 670.632,883.4535 670.632,872.516 664.382,867.2035 661.257,860.641 660.9445,855.9535 662.1945,854.0785 669.382,853.4535 680.9445,858.4535 685.007,856.266 689.0695,855.641 710.007,857.2035 718.4445,850.641 723.4445,849.0785 726.882,849.391 727.8195,850.016 728.757,853.4535 728.757,860.9535 727.1945,866.266 724.6945,869.0785"/>
    <line x1="723.132" x2="723.132" y1="864.0785" y2="864.0785"/>
    <line x1="710.9445" x2="710.9445" y1="864.0785" y2="867.8285"/>
    <polyline points="675.3195,753.6385 685.9445,752.701 690.3195,751.451 692.8195,749.2635 693.4445,746.451 690.007,744.2635 686.882,744.2635 680.632,746.1385 675.9445,749.2635 675.007,751.7635 682.8195,747.076 685.9445,747.701"/>
    <polyline points="685.9445,749.576 684.6945,746.451 685.9445,751.451 683.757,746.451 685.007,752.701 684.6945,745.826"/>
    <polyline points="680.007,734.576 671.257,728.326 667.8195,727.076 660.3195,724.8885 658.132,724.8885 656.882,726.451 662.507,738.951 669.382,746.7635 665.9445,749.576 660.632,760.826 659.6945,769.2635 660.632,780.201 665.3195,786.451 671.882,790.5135 680.3195,793.0135 694.6945,793.951 706.5695,793.0135 719.0695,788.326 725.007,783.6385 730.9445,776.1385 733.132,765.5135 732.1945,754.8885 730.632,750.826 727.507,747.076"/>
    <polyline points="727.1945,744.8885 729.382,741.7635 735.632,723.6385 736.5695,720.201 735.632,718.0135 730.9445,719.576 723.4445,725.201 715.9445,736.1385 709.0695,729.8885 699.6945,727.701 686.5695,729.576 681.5695,732.3885 681.257,733.6385"/>
    <polyline points="703.132,742.076 710.3195,742.701 717.507,744.8885 720.9445,746.7635 725.632,752.3885 722.507,753.6385 716.5695,754.2635 707.1945,752.701 704.0695,751.1385 701.5695,748.326 701.5695,744.8885 702.507,743.6385"/>
    <polyline points="711.882,662.8861 706.257,659.1361 698.4445,651.0111 694.382,643.5111"/>
    <polyline points="699.382,639.4486 705.9445,644.4486 718.757,651.0111"/>
    <polyline points="736.5695,638.1986 709.382,632.8861 698.4445,633.5111"/>
    <polyline points="694.382,629.4486 695.007,622.5736 697.8195,619.7611"/>
    <polyline points="694.6945,611.0111 695.9445,607.5736 701.257,600.0736 711.257,588.5111 714.6945,586.9486 714.6945,596.6361 708.132,619.1361"/>
    <polyline points="688.132,612.5736 678.4445,609.1361 666.5695,601.3236 671.257,626.3236 674.0695,634.4486 675.9445,636.9486"/>
    <line x1="678.757" x2="656.882" y1="637.2611" y2="637.8861"/>
    <polyline points="674.0695,644.4486 667.1945,652.2611 664.382,658.5111"/>
    <line x1="683.4445" x2="683.757" y1="636.3236" y2="624.7611"/>
    <polyline points="683.132,614.7611 679.6945,613.8236 675.632,614.7611 670.3195,622.5736 667.8195,629.4486 666.5695,642.8861 667.507,646.9486 670.3195,650.6986 674.6945,651.9486 680.007,652.2611 686.882,651.9486 693.132,649.7611 699.382,645.6986 704.382,641.0111 706.882,636.6361 707.8195,631.0111 707.8195,625.6986 702.1945,616.3236 693.757,611.6361 683.4445,610.0736"/>
    <polyline points="595.6818,626.9486 599.1193,620.0736 600.6818,608.8236 600.9943,595.6986 599.7443,592.2611 596.9318,598.8236 589.1193,610.3861 583.1818,616.0111"/>
    <polyline points="588.8068,620.3861 588.1818,617.2611 583.8068,613.8236 575.3693,611.0111 563.4943,610.6986 551.6193,613.5111 544.7443,616.9486 538.8068,622.5736 537.2443,628.8236 536.9318,637.5736 542.8693,649.7611 555.0568,660.0736 564.4318,664.4486 570.3693,666.0111 585.9943,666.6361 591.3068,664.7611 594.4318,662.8861 597.5568,659.4486 598.8068,656.3236 600.3693,638.1986 597.8693,631.6361 589.4318,621.3236 579.4318,616.3236 572.5568,614.7611 567.2443,615.3861"/>
    <polyline points="559.7443,612.8861 558.8068,612.8861 555.3693,590.0736 554.1193,586.9486 550.0568,602.8861 545.3693,613.5111"/>
    <polyline points="546.9318,632.5736 550.0568,632.2611 561.6193,646.0111 572.8693,654.4486 575.9943,655.6986 581.6193,656.0111 585.0568,654.1361 590.0568,650.0736 592.8693,645.0736"/>
    <polyline points="581.3068,644.4486 580.3693,646.3236 577.5568,647.8861 574.7443,647.8861 573.1818,646.6361 573.1818,629.1361"/>
    <polyline points="580.3693,627.5736 582.5568,628.8236 582.8693,630.3861 584.1193,629.7611"/>
    <polyline points="560.3693,626.6361 559.1193,629.4486 560.0568,628.1986"/>
    <polyline points="495.7317,601.3236 496.6692,601.0111 496.0442,599.7611 472.6067,602.2611 436.0442,608.8236"/>
    <polyline points="436.6692,609.7611 446.0442,613.5111 458.8567,622.8861"/>
    <polyline points="433.8567,609.7611 432.6067,611.6361 430.7317,612.2611 426.9817,609.7611"/>
    <polyline points="427.9192,604.1361 425.1067,602.8861 423.8567,604.1361"/>
    <line x1="420.4192" x2="418.2317" y1="609.1361" y2="611.0111"/>
    <polyline points="419.1692,599.4486 418.2317,590.3861 423.5442,597.2611 430.1067,596.6361 434.7942,597.8861 436.9817,586.9486 441.0442,593.5111 442.6067,598.8236 443.2317,604.7611 440.7317,611.0111 438.5442,614.1361 427.9192,614.4486 422.6067,612.5736 419.7942,609.7611 417.6067,605.3861 416.9817,603.1986 418.5442,599.1361"/>
    <polyline points="431.6692,603.8236 433.5442,602.5736 436.0442,603.5111"/>
    <polyline points="376.7191,618.5111 373.2816,617.2611 361.0941,616.3236 352.3441,619.4486 349.5316,622.5736"/>
    <polyline points="347.0316,623.8236 368.5941,629.1361 372.3441,631.3236"/>
    <polyline points="343.5941,612.8861 340.1566,612.8861 338.5941,614.4486 338.2816,617.5736 338.9066,619.1361 343.9066,623.1986 346.4066,623.1986 347.6566,621.0111 347.6566,617.8861 345.7816,614.1361 341.4066,610.0736"/>
    <line x1="325.7816" x2="323.2816" y1="612.5736" y2="612.8861"/>
    <polyline points="318.2816,603.1986 314.8441,605.0736 310.7816,611.6361 310.1566,622.2611 312.3441,629.7611 318.2816,638.8236 323.9066,641.9486 336.7191,644.1361 342.3441,643.8236 356.0941,638.8236 358.2816,637.2611 360.4691,632.8861 360.4691,621.0111 357.9691,613.5111 354.2191,608.8236 353.9066,601.3236 350.7816,591.9486 338.2816,598.1986 331.4066,602.5736 326.0941,602.5736 324.8441,596.6361 320.4691,587.5736 319.2191,586.9486 311.0941,597.8861 308.9066,608.1986"/>
    <polyline points="297.0316,627.5736 302.6566,625.0736 314.2191,626.0111 320.1566,628.5111"/>
    <polyline points="323.2816,631.0111 310.7816,639.1361 309.2191,641.3236"/>
    <polyline points="332.0316,508.3836 334.8441,509.6336 337.3441,507.1336 339.8441,498.6961 341.4066,491.1961 340.4691,492.7586 340.7816,491.1961"/>
    <polyline points="342.3441,493.6961 342.3441,499.0086 344.5316,506.1961 346.0941,507.4461 350.4691,504.6336"/>
    <polyline points="355.1566,501.8211 360.1566,502.1336 362.6566,504.0086"/>
    <polyline points="368.9066,497.1336 360.1566,494.3211 355.1566,494.6336"/>
    <polyline points="353.9066,493.0711 361.4066,490.8836 368.5941,490.5711"/>
    <polyline points="354.8441,482.7586 355.1566,483.6961 353.5941,482.1336"/>
    <polyline points="362.9691,470.8836 332.0316,459.6336 324.8441,460.5711 315.4691,464.3211"/>
    <polyline points="318.9066,467.4461 313.2816,461.8211 308.9066,459.3211 298.9066,456.1961 297.0316,456.8211 301.7191,476.5086"/>
    <polyline points="301.0941,476.8211 304.5316,496.8211 308.9066,505.5711 314.2191,508.3836 319.8441,514.3211 325.4691,516.5086 338.5941,520.2586 342.3441,520.2586 357.9691,515.8836 365.7816,511.1961 370.4691,507.1336 372.6566,503.6961 376.4066,491.1961 375.4691,481.5086 375.4691,477.7586 376.7191,473.6961 376.0941,455.8836 372.3441,457.4461 362.0316,467.7586 361.7191,469.6336"/>
    <polyline points="334.5316,493.6961 324.2191,495.5711 316.4066,499.0086"/>
    <polyline points="321.4066,485.5711 322.9691,484.3211 321.4066,483.0711 321.0941,485.2586 322.6566,486.8211 324.5316,486.8211 325.4691,484.6336"/>
    <polyline points="416.9817,489.9461 431.3567,482.1336 445.4192,478.0711 458.5442,477.7586 467.2942,479.9461 471.3567,482.1336 477.9192,488.0711 482.9192,494.9461 486.6692,506.1961 487.2942,517.7586 484.4817,524.0086 481.0442,528.3836 472.2942,532.1336 456.3567,535.2586 439.1692,535.5711 431.9817,532.4461 423.2317,524.9461 418.2317,515.8836 416.9817,490.5711 418.2317,488.6961 419.7942,488.3836"/>
    <polyline points="430.7317,483.3836 432.6067,475.8836 433.5442,463.0711 435.4192,456.1961 441.6692,472.1336 441.9817,478.3836"/>
    <polyline points="437.6067,478.3836 436.0442,475.2586 434.4817,480.5711"/>
    <polyline points="443.5442,493.0711 446.3567,493.6961 450.1067,497.4461 450.7317,501.8211 449.1692,505.8836 447.2942,506.8211 443.8567,506.8211 440.4192,503.6961 438.8567,499.9461 438.8567,497.1336 441.6692,495.2586"/>
    <polyline points="457.2942,491.1961 456.0442,493.0711 456.3567,502.7586 457.6067,505.5711 461.0442,506.8211 463.5442,504.3211 465.7317,496.5086 464.4817,492.1336 462.2942,490.2586"/>
    <polyline points="465.4192,480.5711 469.1692,476.1961 479.7942,459.9461 479.4817,487.1336"/>
    <polyline points="474.1692,485.2586 473.8567,477.7586 470.7317,482.4461"/>
    <line x1="485.7317" x2="486.6692" y1="499.3211" y2="500.2586"/>
    <polyline points="536.9318,478.6961 549.1193,480.2586 568.1818,485.2586"/>
    <line x1="565.9943" x2="543.4943" y1="486.1961" y2="492.4461"/>
    <line x1="539.7443" x2="565.6818" y1="485.8836" y2="485.5711"/>
    <polyline points="567.2443,491.8211 569.7443,495.5711 573.1818,496.8211 578.4943,495.8836 579.4318,494.9461 576.9318,494.3211"/>
    <polyline points="575.9943,484.6336 592.5568,479.9461 605.0568,474.6336 606.9318,473.3836 605.0568,473.6961"/>
    <line x1="608.8068" x2="580.6818" y1="484.9461" y2="485.2586"/>
    <polyline points="580.0568,476.8211 580.6818,477.7586 581.9318,476.8211 580.3693,474.6336 577.5568,474.3211 576.9318,475.5711"/>
    <polyline points="567.8693,476.8211 568.4943,475.5711 569.4318,476.5086 568.8068,478.0711 565.0568,477.7586 564.4318,476.1961"/>
    <polyline points="555.6818,474.3211 553.8068,479.9461 554.1193,485.2586 556.9318,492.4461 560.3693,496.1961 565.6818,500.2586 570.3693,501.8211 577.8693,501.5086 581.9318,499.6336 585.0568,496.5086 586.6193,491.5086 586.3068,483.0711 584.4318,475.5711 584.4318,474.3211 586.6193,473.0711 585.0568,456.5086 575.9943,471.5086 567.8693,465.8836 561.3068,466.8211 556.3068,455.8836 553.8068,473.6961"/>
    <polyline points="581.3068,401.3812 570.6818,404.5062 561.9318,404.5062 555.9943,403.2562 547.5568,395.7562 545.0568,392.3187 539.7443,377.0062 541.6193,357.0062 542.8693,351.6937 545.3693,347.6312 548.4943,344.1937 552.2443,342.9437"/>
    <polyline points="550.6818,347.6312 557.5568,341.6937 566.6193,341.0687 589.4318,347.6312 598.8068,355.1312"/>
    <polyline points="599.7443,363.8812 596.3068,366.6937 587.8693,369.1937"/>
    <line x1="585.9943" x2="597.5568" y1="381.6937" y2="382.3187"/>
    <line x1="586.6193" x2="591.6193" y1="387.0062" y2="394.1937"/>
    <polyline points="573.1818,377.0062 567.8693,380.7562 565.0568,381.3812 561.6193,379.8187 557.8693,375.7562"/>
    <polyline points="557.8693,374.8187 552.8693,377.3187 543.4943,384.5062 539.4318,389.5062"/>
    <polyline points="551.3068,370.7562 545.6818,368.2562 538.1818,367.3187"/>
    <line x1="550.9943" x2="536.9318" y1="362.3187" y2="352.6312"/>
    <polyline points="551.3068,348.8812 552.2443,339.5062 555.3693,324.8187 562.8693,339.5062 564.4318,340.7562"/>
    <polyline points="559.4318,347.0062 556.9318,350.1312 556.9318,353.5687 558.4943,353.2562 560.9943,348.8812 561.3068,346.6937 558.4943,346.3812"/>
    <polyline points="578.1818,350.1312 579.1193,351.0687 579.1193,354.5062 577.8693,356.3812 573.8068,355.1312 573.4943,353.2562 574.7443,349.8187 578.8068,349.5062"/>
    <polyline points="581.6193,341.0687 582.8693,337.0062 587.8693,329.8187 592.5568,345.7562"/>
    <polyline points="657.507,370.7562 661.5695,367.9437 687.8195,358.5687"/>
    <polyline points="688.757,358.2562 692.1945,360.7562 693.757,358.8812 688.757,357.9437 693.132,359.1937 717.1945,346.0687 733.4445,340.1312 725.9445,343.5687"/>
    <polyline points="733.757,357.3187 723.4445,356.3812 695.007,356.6937"/>
    <polyline points="689.6945,357.9437 695.007,357.9437 700.632,359.8187 736.5695,373.8812"/>
    <line x1="693.132" x2="692.507" y1="366.6937" y2="362.3187"/>
    <polyline points="690.9445,361.6937 688.132,359.8187 676.882,356.6937 662.1945,351.0687"/>
    <polyline points="684.0695,345.1312 686.882,345.7562 684.0695,343.2562"/>
    <line x1="685.007" x2="685.007" y1="343.5687" y2="344.1937"/>
    <polyline points="694.382,343.8812 699.0695,347.0062 696.257,343.5687"/>
    <polyline points="688.4445,360.1312 684.6945,362.6312 678.4445,369.8187 669.382,385.1312 666.882,387.9437"/>
    <polyline points="678.4445,328.8812 684.382,326.0687 690.3195,326.0687 701.257,327.9437 707.507,329.5062 715.007,335.4437 721.5695,342.6312 726.257,351.6937 727.1945,363.2562 725.632,369.8187 720.9445,377.6312 715.9445,380.4437 710.3195,381.6937 701.5695,382.0062 696.257,381.6937 679.6945,376.0687 665.9445,369.5062 661.257,362.6312 659.382,357.3187 660.007,347.3187 664.0695,335.7562 666.5695,331.6937 672.507,327.9437 680.3195,324.8187"/>
    <polyline points="664.382,259.0662 667.507,251.8787 672.1945,247.1912 693.757,235.9412"/>
    <polyline points="690.3195,229.3787 689.6945,231.2537 673.4445,231.8787 665.632,234.3787 659.6945,238.1287 656.882,242.1912"/>
    <polyline points="667.1945,222.1912 665.9445,223.7537 672.507,242.5037 677.8195,248.4412 685.632,252.5037 690.632,253.7537 700.632,253.7537 710.007,251.2537 716.257,247.8162 720.632,242.8162 727.507,227.1912 727.8195,193.7537 723.757,199.3787 713.4445,205.3162"/>
    <polyline points="712.1945,207.8162 704.382,205.6287 691.882,205.3162 686.882,207.1912 683.757,210.3162 682.8195,209.3787"/>
    <polyline points="682.1945,207.8162 682.1945,205.6287 674.382,198.1287 666.882,197.1912 665.632,199.6912 664.382,212.5037"/>
    <polyline points="698.757,225.0037 696.882,224.6912 695.007,225.9412 693.757,228.1287 693.4445,230.3162 695.632,231.8787 699.6945,230.0037 701.257,225.0037"/>
    <line x1="703.132" x2="704.6945" y1="232.8162" y2="238.7537"/>
    <polyline points="713.757,232.5037 714.0695,234.3787 729.6945,248.7537 736.5695,259.0662"/>
    <line x1="616.6193" x2="585.3693" y1="221.8787" y2="219.6912"/>
    <line x1="584.7443" x2="584.7443" y1="215.6287" y2="215.3162"/>
    <polyline points="585.6818,210.6287 598.8068,196.2537 603.4943,194.0662 607.2443,194.0662 609.1193,197.1912 608.1818,201.5662 603.8068,212.5037 598.8068,220.3162 591.6193,227.1912 583.4943,231.2537 575.0568,231.8787 567.2443,230.3162 559.4318,225.3162 554.1193,217.5037 551.3068,205.3162 552.5568,198.1287 553.4943,196.5662 554.7443,197.8162"/>
    <polyline points="554.4318,196.5662 550.9943,195.3162 555.9943,198.4412 560.9943,205.6287 564.7443,208.7537 583.4943,207.8162"/>
    <polyline points="581.3068,222.1912 589.7443,222.8162 608.1818,228.4412"/>
    <line x1="602.2443" x2="585.9943" y1="234.6912" y2="226.2537"/>
    <polyline points="581.9318,230.9412 580.6818,252.5037 581.3068,260.0037"/>
    <polyline points="575.9943,264.3787 582.2443,260.3162 593.4943,259.0662 600.9943,260.6287 604.7443,262.5037 606.6193,265.0037 606.6193,266.2537 604.7443,267.8162 600.9943,269.6912 585.6818,272.1912 564.4318,270.9412 557.2443,269.3787 552.8693,266.8787 554.1193,259.6912 559.4318,246.2537 566.6193,233.4412 570.3693,229.0662"/>
    <polyline points="567.5568,228.7537 570.9943,229.3787 574.7443,228.7537 576.3068,227.1912 577.2443,223.4412"/>
    <polyline points="573.1818,220.0037 570.6818,222.8162 568.1818,221.2537 570.0568,223.7537"/>
    <line x1="568.4943" x2="568.4943" y1="220.9412" y2="220.9412"/>
    <line x1="568.4943" x2="572.5568" y1="220.0037" y2="219.0662"/>
    <line x1="565.6818" x2="565.3693" y1="224.6912" y2="225.0037"/>
    <polyline points="562.5568,224.3787 549.4318,229.6912 536.9318,236.5662"/>
    <line x1="546.6193" x2="562.5568" y1="240.9412" y2="228.1287"/>
    <polyline points="560.6818,221.5662 545.0568,221.5662 537.2443,223.4412"/>
    <line x1="561.3068" x2="561.6193" y1="214.6912" y2="214.6912"/>
    <line x1="550.9943" x2="550.9943" y1="195.3162" y2="195.3162"/>
    <polyline points="553.1818,105.1887 551.3068,104.5637 562.5568,98.6262"/>
    <polyline points="566.6193,98.3137 557.2443,96.4387 540.9943,95.8137 550.3693,95.5012"/>
    <polyline points="556.6193,99.5637 551.9318,100.8137 543.8068,101.1262 537.5568,103.3137"/>
    <polyline points="558.1818,84.2512 559.4318,80.5012 569.1193,62.6887 573.8068,79.2512"/>
    <polyline points="579.4318,77.0637 595.0568,68.6262 593.8068,83.9387"/>
    <polyline points="580.6818,79.2512 567.5568,79.2512 558.4943,83.6262 554.1193,87.6887 550.6818,93.0012 550.3693,98.9387 552.5568,101.1262 559.4318,106.1262 568.8068,111.1262 573.8068,112.6887 584.4318,112.6887 589.7443,107.6887 592.8693,101.1262 593.4943,87.6887 592.8693,85.5012 588.8068,81.4387 584.7443,79.5637 576.6193,78.0012 566.9318,78.0012"/>
    <line x1="566.6193" x2="564.4318" y1="89.2512" y2="89.8762"/>
    <line x1="570.0568" x2="570.6818" y1="96.4387" y2="98.0012"/>
    <line x1="572.5568" x2="572.5568" y1="97.0637" y2="96.1262"/>
    <polyline points="573.1818,98.3137 593.4943,98.0012 607.8693,96.1262 616.6193,96.1262 600.6818,96.4387"/>
    <line x1="607.5568" x2="574.7443" y1="103.3137" y2="99.8762"/>
    <polyline points="578.8068,100.5012 578.8068,104.5637 580.6818,108.0012 590.0568,112.3762 595.3693,113.3137 595.6818,112.3762"/>
    <polyline points="579.1193,90.8137 581.3068,88.6262 580.9943,90.5012 577.2443,92.3762"/>
    <polyline points="656.882,122.3762 662.8195,122.0637 670.9445,119.2512 674.382,115.8137 676.257,112.6887 676.882,105.1887"/>
    <polyline points="678.132,99.2512 680.632,101.4387 686.882,102.3762 689.6945,99.2512 689.382,95.1887"/>
    <polyline points="690.3195,95.5012 690.632,99.5637 693.757,101.4387 698.4445,99.8762 702.507,97.0637"/>
    <polyline points="704.382,107.6887 702.8195,112.3762 703.757,122.3762 708.132,125.8137 716.5695,128.3137"/>
    <polyline points="711.5695,130.8137 712.507,126.4387 721.5695,106.4387 727.1945,91.1262 727.507,84.8762 729.0695,82.6887 736.257,81.4387 736.5695,79.2512 734.382,75.5012 731.5695,74.8762 726.882,76.7512 722.507,81.1262 716.257,92.6887 710.632,108.3137 708.132,119.8762 708.757,123.0012"/>
    <polyline points="687.1945,94.8762 689.6945,89.8762 692.507,91.1262 693.4445,92.6887 687.507,94.5637"/>
    <polyline points="684.6945,82.0637 685.632,83.6262 683.132,84.8762 683.757,80.8137"/>
    <polyline points="680.3195,76.7512 676.257,66.1262 674.382,63.6262 671.882,62.6887 670.9445,64.8762 669.382,82.6887"/>
    <polyline points="667.8195,82.0637 668.132,92.3762 670.632,99.5637 672.507,102.0637 680.007,107.0637 690.3195,109.5637 697.8195,108.9387 704.6945,107.0637 708.4445,104.8762 711.5695,101.4387 715.007,95.8137 715.9445,86.7512 713.132,84.2512 709.382,83.6262"/>
    <line x1="711.257" x2="710.632" y1="84.8762" y2="80.5012"/>
    <polyline points="712.507,80.5012 708.4445,62.6887 703.757,68.0012 700.007,78.3137"/>
    <polyline points="700.007,78.9387 696.5695,76.4387 692.507,75.5012 680.632,75.5012"/>
    <polyline points="697.1945,82.6887 699.382,83.6262 699.382,85.1887 697.1945,85.1887 696.5695,83.9387 696.882,82.3762 698.757,81.4387"/>
    <line x1="446.3567" x2="439.7942" y1="112.3762" y2="123.0012"/>
    <polyline points="433.2317,122.3762 436.9817,116.1262 444.7942,110.5012"/>
    <polyline points="436.3567,102.6887 449.7942,115.8137 451.9817,116.7512 459.4817,103.9387 438.8567,103.9387 432.6067,104.5637"/>
    <polyline points="422.6067,114.8762 421.9817,123.9387 423.8567,137.6887 424.7942,139.5637 428.8567,141.7512 441.9817,141.7512 470.7317,131.1262 476.6692,127.0637 480.1067,119.5637 482.2942,112.0637 482.2942,102.0637 479.1692,90.1887 477.2942,86.7512 470.7317,81.4387 468.8567,70.1887 465.4192,64.5637 464.1692,65.1887 459.7942,78.0012 452.2942,78.0012 436.3567,73.6262 426.0442,62.6887 425.4192,63.0012 424.7942,72.0637 425.7317,82.0637 420.4192,87.3762 418.2317,91.4387 416.9817,102.6887 418.8567,113.0012 422.6067,119.5637 425.7317,122.6887"/>
    <line x1="420.1067" x2="423.2317" y1="199.6912" y2="209.3787"/>
    <line x1="423.5442" x2="423.5442" y1="208.4412" y2="207.5037"/>
    <line x1="423.2317" x2="416.9817" y1="207.5037" y2="206.2537"/>
    <line x1="417.2942" x2="421.6692" y1="211.2537" y2="208.4412"/>
    <polyline points="425.1067,209.0662 431.6692,205.9412 435.4192,205.6287"/>
    <polyline points="437.2942,205.0037 439.7942,200.6287 440.7317,196.2537 434.7942,201.8787 433.2317,193.7537 431.3567,201.5662"/>
    <line x1="431.6692" x2="431.6692" y1="203.1287" y2="203.1287"/>
    <line x1="434.4817" x2="426.6692" y1="209.3787" y2="209.0662"/>
    <line x1="425.4192" x2="431.0442" y1="208.4412" y2="215.0037"/>
    <polyline points="433.8567,215.9412 427.6067,214.3787 424.7942,209.6912 425.1067,207.8162 429.4817,205.0037 430.1067,202.8162 432.2942,200.9412 435.4192,202.5037 440.1067,208.1287 443.5442,210.0037 452.9192,207.5037 457.6067,207.5037 469.4817,210.6287 479.7942,205.9412 489.7942,197.8162 496.3567,195.3162 496.6692,200.6287 495.7317,201.8787 485.4192,205.6287 471.6692,216.8787 473.5442,221.5662 473.5442,224.3787 471.6692,229.0662 470.1067,228.7537 468.5442,223.1287 466.9817,228.1287 462.9192,229.6912 463.8567,222.5037 462.6067,219.6912 449.1692,216.8787 446.3567,217.1912 443.5442,219.6912 441.9817,227.8162 439.7942,230.3162 438.2317,230.9412 437.9192,224.0662 437.2942,226.5662 434.4817,228.7537 431.3567,229.0662 430.1067,227.8162 434.4817,217.1912"/>
    <polyline points="445.1067,348.8812 447.9192,347.6312 451.3567,347.6312 462.6067,350.7562 469.4817,353.8812 474.7942,359.1937 477.2942,366.6937 476.3567,374.8187 472.2942,383.8812 468.8567,388.2562 463.5442,392.6312 457.9192,395.1312 452.6067,396.3812 447.9192,396.3812 436.0442,392.6312 432.6067,390.1312 429.7942,385.4437 426.6692,375.1312 427.9192,365.4437 432.6067,356.6937 437.6067,352.0062 442.9192,349.1937 453.8567,346.3812 459.7942,350.7562"/>
    <polyline points="465.1067,349.5062 482.6067,331.0687 481.9817,333.8812 471.0442,356.0687"/>
    <polyline points="461.0442,358.2562 460.4192,359.1937 461.6692,364.8187 464.1692,366.3812 468.5442,362.9437 468.5442,358.2562 463.2317,356.0687 458.5442,358.2562"/>
    <polyline points="443.8567,356.0687 441.3567,356.3812 437.9192,359.1937 436.0442,364.1937 436.9817,368.5687 440.1067,369.5062 442.2942,368.8812 445.7317,363.5687 444.4817,357.6312 441.6692,357.0062 436.9817,361.6937"/>
    <polyline points="432.2942,354.5062 427.6067,340.7562 424.4817,326.6937 424.7942,324.8187 427.6067,326.0687 433.2317,332.6312 439.7942,349.8187"/>
    <polyline points="449.7942,378.2562 435.7317,387.3187 429.4817,388.8812"/>
    <polyline points="431.9817,404.5062 437.9192,397.9437 448.2317,383.5687 449.7942,383.2562"/>
    <polyline points="448.5442,381.3812 465.4192,394.1937 483.5442,404.1937"/>
    <polyline points="486.3567,388.2562 484.4817,388.8812 473.8567,387.3187 456.6692,381.0687 454.4817,381.3812 459.1692,381.0687"/>
    <polyline points="454.1692,378.2562 482.9192,367.6312 488.5442,366.3812 490.1067,367.0062"/>
    <polyline points="452.6067,379.1937 451.9817,378.8812 450.4192,381.0687 451.3567,379.5062 450.7317,378.5687 452.9192,378.2562 452.2942,379.5062"/>
    <polyline points="449.1692,378.5687 435.1067,374.1937 426.6692,374.5062 416.9817,376.3812"/>
    <polyline points="321.7191,137.0637 321.7191,132.3762 323.2816,128.6262"/>
    <polyline points="327.6566,117.6887 322.3441,128.3137 319.2191,127.0637 316.4066,122.0637 317.0316,116.1262 324.8441,114.2512"/>
    <line x1="327.0316" x2="333.5941" y1="103.6262" y2="102.6887"/>
    <line x1="325.7816" x2="325.7816" y1="98.3137" y2="98.3137"/>
    <polyline points="320.7816,87.0637 316.7191,83.3137 311.4066,76.1262 304.2191,70.1887 302.9691,77.0637 302.9691,91.1262 301.4066,99.5637"/>
    <polyline points="307.3441,97.6887 304.8441,98.6262 301.4066,102.3762 297.0316,114.2512 297.0316,127.0637 297.9691,133.3137 300.1566,136.7512 307.6566,142.3762 317.9691,142.3762 329.5316,138.0012 341.7191,131.1262 346.4066,127.0637 349.5316,122.0637 349.5316,113.6262 347.6566,105.1887 343.2816,98.3137 342.3441,73.9387 339.8441,63.0012 330.7816,78.0012 324.8441,82.0637"/>
    <line x1="307.6566" x2="307.6566" y1="99.5637" y2="99.5637"/>
    <line x1="307.6566" x2="312.6566" y1="105.8137" y2="103.9387"/>
    <polyline points="249.8939,94.5637 247.3939,82.3762 246.7689,70.8137 245.5189,67.3762 239.2689,76.7512 237.7064,80.1887 237.7064,83.9387"/>
    <polyline points="243.0189,92.0637 227.7064,101.4387 223.3314,106.4387"/>
    <line x1="222.0814" x2="242.7064" y1="108.9387" y2="112.6887"/>
    <polyline points="226.4564,128.6262 225.8314,125.8137 223.3314,120.5012 217.3939,112.3762"/>
    <polyline points="212.7064,105.8137 211.7689,107.0637 215.2064,112.6887 217.7064,110.5012 217.7064,107.6887 215.2064,105.8137 211.7689,105.8137"/>
    <polyline points="219.2689,83.0012 211.1439,83.0012 197.0814,84.8762 191.4564,86.7512 184.2689,92.0637 179.8939,99.2512 177.3939,108.0012 177.0814,112.3762 178.9564,117.6887 181.7689,121.4387 184.8939,124.5637 195.8314,129.8762 204.8939,132.3762 220.8314,133.6262 229.5814,132.3762 235.5189,130.5012 244.2689,126.1262 251.1439,120.8137 256.1439,112.6887 256.7689,108.0012 249.5814,96.4387 241.7689,89.5637 234.5814,85.8137 223.3314,82.3762 218.6439,82.3762"/>
    <polyline points="201.4564,80.5012 197.0814,74.5637 191.7689,64.2512 188.6439,62.6887 189.2689,72.6887 188.6439,79.2512 182.7064,93.3137"/>
    <polyline points="656.882,490.8836 659.0695,488.0711 666.882,480.8836 674.382,478.3836 698.4445,478.3836 708.757,483.6961 713.757,484.6336 711.882,490.8836 707.8195,497.1336 703.132,501.1961 700.3195,502.1336 690.9445,502.1336 677.8195,497.7586 662.1945,495.5711 656.882,492.7586"/>
    <line x1="666.257" x2="661.257" y1="494.0086" y2="509.3211"/>
    <polyline points="667.507,496.5086 668.757,497.4461 673.132,509.9461 676.257,514.3211"/>
    <line x1="685.3195" x2="689.0695" y1="513.6961" y2="502.4461"/>
    <line x1="695.9445" x2="702.8195" y1="504.3211" y2="513.0711"/>
    <polyline points="707.8195,474.3211 706.5695,475.5711 706.5695,479.6336 710.007,484.6336 722.507,485.2586 725.9445,482.7586 726.882,478.6961 726.882,473.6961 723.757,466.5086 720.632,463.3836 715.007,461.1961 709.0695,461.5086 705.9445,464.9461 704.0695,469.9461"/>
    <polyline points="703.4445,469.6336 697.1945,461.5086 695.9445,458.3836 695.9445,455.8836 706.882,461.8211"/>
    <polyline points="707.1945,462.1336 705.632,459.6336 702.8195,459.0086 698.757,461.5086 698.4445,464.0086 699.6945,465.2586 702.507,465.5711"/>
    <polyline points="723.757,465.2586 736.5695,459.3211 729.382,466.1961 725.9445,471.8211"/>
    <polyline points="490.1067,849.0785 491.9817,849.0785 495.7317,851.891 496.6692,854.7035 496.3567,857.516 491.3567,862.516 487.6067,864.7035 476.9817,867.2035 475.1067,866.891 471.6692,863.4535 471.9817,861.5785 482.2942,853.766 490.4192,849.7035"/>
    <polyline points="476.6692,865.641 478.5442,865.641 478.5442,867.516 476.6692,870.3285 463.2317,874.0785 453.8567,873.4535 446.9817,870.016 444.7942,868.141 444.1692,865.3285 444.1692,862.516 446.0442,860.3285 458.8567,859.391 470.4192,861.891"/>
    <polyline points="468.8567,871.266 468.2317,875.641 467.9192,886.891 466.3567,886.266"/>
    <polyline points="453.5442,881.891 451.6692,882.516 451.3567,875.641 447.2942,869.0785"/>
    <polyline points="444.1692,861.266 441.3567,860.9535 437.9192,857.8285 433.8567,856.266 429.7942,856.266 426.9817,859.391 425.7317,862.2035 425.7317,866.891 428.2317,870.016 432.9192,871.266 442.2942,870.641 444.1692,868.4535 444.1692,866.266 440.4192,862.8285"/>
    <polyline points="426.9817,866.5785 429.1692,870.3285 436.0442,877.2035"/>
    <line x1="425.1067" x2="416.9817" y1="863.141" y2="866.891"/>
    <polyline points="307.3441,890.3285 309.2191,898.4535 310.1566,913.141 310.7816,916.891 312.0316,918.4535 315.7816,917.516 314.5316,901.266 318.2816,913.141 320.4691,914.391 322.6566,911.5785 322.6566,908.141 318.5941,901.266 319.2191,899.391 344.2191,895.641 352.3441,892.2035 352.0316,917.8285 357.0316,917.2035 359.5316,914.0785 360.7816,910.9535 360.7816,899.0785 361.7191,897.2035 361.7191,914.0785 362.6566,916.266 369.2191,914.0785 367.6566,913.766 367.6566,903.4535 365.4691,889.391 365.7816,887.8285 374.8441,884.0785 376.7191,880.3285 376.0941,865.641 374.8441,863.766 371.4066,868.4535 366.7191,868.4535 363.5941,863.766 362.0316,865.016 360.4691,870.016 355.7816,872.2035 350.7816,876.5785 351.4066,881.266 354.2191,884.0785 327.6566,883.4535 313.5941,885.641 311.4066,879.0785 309.5316,864.391 304.5316,854.0785 304.2191,850.641 303.2816,849.0785 298.5941,849.391 297.0316,850.3285 297.0316,853.766 301.0941,859.0785 302.6566,881.891 304.8441,889.7035 306.4066,891.266"/>
    <polyline points="229.5814,886.5785 230.8314,875.9535 230.2064,863.141 226.4564,867.516 214.8939,876.891"/>
    <polyline points="218.9564,870.9535 206.4564,867.516 193.0189,868.141 187.7064,870.641 183.6439,875.016 181.7689,877.8285 178.3314,889.0785 178.3314,901.5785 181.1439,909.391 187.3939,920.016 195.8314,926.5785 203.6439,928.4535 211.4564,928.766 221.1439,927.516 231.7689,922.516 236.1439,917.2035 237.0814,914.7035 237.7064,911.266 237.3939,904.0785 233.0189,893.4535 221.4564,880.3285 213.3314,874.391 208.9564,872.8285 201.7689,871.891"/>
    <polyline points="191.1439,861.891 183.3314,849.391 178.0189,874.0785 177.3939,890.3285"/>
    <polyline points="198.6439,900.016 198.3314,902.8285 200.8314,904.391 203.0189,904.0785 202.7064,900.641"/>
    <polyline points="210.5189,892.2035 213.9564,893.141 216.7689,895.016 217.0814,899.0785 216.1439,901.266 213.9564,900.641 213.9564,898.141 215.5189,895.3285 217.7064,894.0785"/>
    <line x1="136.8188" x2="104.6313" y1="886.5785" y2="880.641"/>
    <polyline points="101.5063,886.5785 123.0688,890.641 130.5688,893.4535"/>
    <line x1="123.0688" x2="102.4438" y1="896.891" y2="888.766"/>
    <polyline points="121.8188,880.3285 123.0688,880.016 124.0063,878.4535 123.6938,870.3285 121.1938,864.0785 117.4438,861.5785 116.8188,849.0785 109.3188,862.516 102.1313,858.766 91.1938,858.766 86.8188,849.7035 85.5688,849.391 84.0063,854.0785 84.0063,858.766 80.2563,861.266 77.1313,865.641 73.0688,872.8285 71.8188,877.516 71.8188,888.141 73.0688,895.9535 75.8813,899.7035 83.3813,903.766 96.1938,904.391 107.4438,900.641 113.6938,895.9535 118.6938,890.641 123.0688,882.516 123.3813,880.9535"/>
    <polyline points="79.9438,884.391 77.1313,885.016 67.1313,889.391 59.6313,894.391 59.6313,895.641"/>
    <polyline points="57.1313,903.766 69.3188,894.391 73.3813,892.516 76.1938,892.2035"/>
    <polyline points="78.6938,877.8285 76.5063,877.2035 69.3188,879.7035 58.3813,886.5785"/>
    <polyline points="108.6938,997.956 102.7563,991.706 103.0688,988.2685 109.9438,990.456 114.0063,993.8935 115.5688,997.331"/>
    <polyline points="118.6938,1001.706 120.5688,1002.956 121.8188,1002.956 119.6313,1001.706"/>
    <line x1="122.4438" x2="122.4438" y1="1002.331" y2="1002.331"/>
    <line x1="124.0063" x2="125.2563" y1="1000.456" y2="1002.0185"/>
    <line x1="124.9438" x2="124.9438" y1="1003.8935" y2="1003.8935"/>
    <polyline points="125.8813,1005.7685 125.5688,1010.456 121.8188,1011.706 117.4438,1010.7685"/>
    <polyline points="114.0063,1008.8935 108.6938,1005.7685 96.8188,1002.6435 84.9438,1003.2685 73.3813,1006.3935 69.0063,1008.581 64.9438,1008.581 64.6313,992.0185 63.3813,983.8935 61.8188,981.081 57.1313,980.1435 57.7563,984.206 61.8188,987.6435 63.3813,992.0185 63.0688,1002.956 58.0688,1014.831 64.6313,1025.7685 62.1313,1035.1435 62.4438,1046.706 63.3813,1050.1435 69.6313,1030.7685 70.2563,1039.831 73.0688,1049.206 74.3188,1036.081 76.1938,1028.2685 80.5688,1026.081 90.8813,1026.081 99.6313,1027.6435 100.8813,1032.956 101.8188,1049.206 103.0688,1051.081 104.3188,1040.456 108.3813,1025.1435 109.9438,1026.081 111.5063,1030.7685 113.6938,1051.3935 116.8188,1051.081 118.0688,1049.831 119.3188,1045.456 119.9438,1031.3935 121.5063,1025.1435 124.6313,1020.7685 130.8813,1020.1435"/>
    <polyline points="128.0688,1018.2685 134.3188,1014.206 135.2563,1012.6435 135.2563,1008.2685 132.7563,1001.706 129.3188,997.331 125.5688,994.831 115.8813,994.206 110.2563,998.2685 109.0063,999.831 109.3188,1004.5185 112.7563,1008.8935"/>
    <line x1="118.3813" x2="122.4438" y1="1006.3935" y2="1007.6435"/>
    <line x1="119.6313" x2="119.6313" y1="1006.3935" y2="1006.3935"/>
    <polyline points="128.6938,997.0185 132.1313,991.706 135.8813,989.831 136.8188,991.706 136.5063,994.5185 134.3188,999.5185"/>
    <polyline points="180.2064,991.081 179.5814,980.1435 186.4564,984.206"/>
    <polyline points="183.9564,986.3935 203.6439,986.3935 209.5814,990.456 215.8314,996.3935 218.3314,1000.7685 219.2689,1005.456 218.3314,1008.8935 214.2689,1012.6435 209.5814,1013.8935 192.7064,1013.581 180.8314,1009.206 177.3939,1005.1435 177.0814,1003.2685 177.7064,994.206 183.0189,989.206 188.3314,987.331"/>
    <line x1="190.2064" x2="189.8939" y1="994.5185" y2="995.7685"/>
    <line x1="193.6439" x2="194.8939" y1="1000.7685" y2="1002.6435"/>
    <polyline points="193.3314,1002.0185 193.3314,1005.456 188.0189,1006.081 186.7689,1004.831"/>
    <polyline points="193.0189,1006.3935 197.3939,1007.0185 201.1439,1006.3935"/>
    <polyline points="206.4564,1010.7685 207.0814,1017.6435 209.2689,1023.2685 215.5189,1030.1435 223.6439,1035.7685 230.8314,1038.2685 238.6439,1037.956 247.7064,1036.081 253.6439,1032.956 256.4564,1029.206 256.7689,1020.7685 255.2064,1017.0185 249.5814,1010.1435 246.1439,1007.6435 238.0189,1005.1435 215.8314,1004.5185"/>
    <polyline points="219.2689,994.831 218.9564,986.3935 217.3939,986.706 212.7064,990.7685"/>
    <line x1="203.3314" x2="203.0189" y1="997.331" y2="997.331"/>
    <polyline points="297.0316,1037.0185 302.0316,1028.581 310.7816,1020.7685 312.9691,1019.831"/>
    <polyline points="319.5316,1023.2685 316.0941,1025.456 310.7816,1031.081 306.7191,1041.081"/>
    <polyline points="328.9066,1022.6435 328.9066,1024.5185 331.4066,1026.3935 350.1566,1027.6435 354.8441,1024.831 359.8441,1018.8935"/>
    <polyline points="362.6566,1015.7685 372.9691,1015.456 374.8441,1016.3935 376.7191,1020.1435"/>
    <polyline points="374.5316,1032.6435 370.7816,1026.706 368.9066,1025.456 364.5316,1024.206 358.2816,1024.5185"/>
    <line x1="350.7816" x2="350.7816" y1="1006.081" y2="1006.081"/>
    <line x1="347.6566" x2="347.0316" y1="1005.1435" y2="1006.3935"/>
    <polyline points="354.2191,994.206 351.7191,987.956 351.0941,980.1435 348.2816,985.7685 342.0316,989.831"/>
    <polyline points="341.0941,988.2685 332.9691,988.8935 317.9691,993.8935 314.5316,996.081 312.0316,999.206 310.7816,1003.8935 311.4066,1016.706 313.9066,1022.331 317.3441,1026.3935 322.0316,1030.1435 328.2816,1032.6435 335.7816,1034.206 343.9066,1034.206 350.7816,1031.3935 356.4066,1025.7685 361.0941,1016.081 362.0316,999.831 359.5316,993.581 356.0941,989.831 347.6566,988.8935"/>
    <polyline points="332.6566,993.2685 329.5316,990.1435 323.2816,987.0185 316.4066,984.831 314.5316,997.331"/>
    <line x1="327.6566" x2="327.9691" y1="1007.0185" y2="1006.706"/>
    <polyline points="332.9691,1013.2685 342.3441,1013.8935 342.0316,1022.0185 340.7816,1023.2685 333.2816,1014.5185"/>
    <polyline points="416.9817,1019.5185 427.2942,1018.2685 441.0442,1015.1435 451.9817,1014.5185"/>
    <line x1="451.9817" x2="444.1692" y1="1016.706" y2="1017.6435"/>
    <polyline points="446.6692,1017.6435 436.9817,1019.5185 428.5442,1019.5185"/>
    <polyline points="429.4817,1022.956 439.4817,1022.6435 449.4817,1020.456"/>
    <line x1="446.6692" x2="453.2317" y1="1020.456" y2="1020.1435"/>
    <polyline points="457.6067,1021.081 465.7317,1021.3935 469.1692,1018.8935"/>
    <polyline points="468.8567,1013.8935 484.1692,1009.5185 491.9817,1005.7685"/>
    <polyline points="492.2942,1009.831 480.7317,1014.5185 474.1692,1016.081"/>
    <line x1="475.4192" x2="496.6692" y1="1017.6435" y2="1017.6435"/>
    <polyline points="474.1692,997.956 474.4817,987.331 472.9192,981.081 472.2942,980.1435 466.0442,988.2685"/>
    <polyline points="464.7942,988.581 468.5442,990.1435 472.2942,993.581 476.9817,998.8935 482.6067,1007.6435 483.2317,1013.8935 481.9817,1022.0185 480.1067,1027.331 478.2317,1029.5185 471.3567,1032.331 454.1692,1031.3935 446.6692,1026.3935 441.3567,1017.956 441.6692,1002.956 445.1067,992.0185 447.9192,989.206 454.1692,987.0185 466.9817,986.706"/>
    <polyline points="462.6067,996.081 465.1067,996.3935 466.0442,998.581 465.7317,1002.331 463.5442,1002.956 461.3567,1002.0185 461.0442,1000.1435 462.9192,997.331 465.4192,997.0185"/>
    <polyline points="452.2942,999.206 454.1692,998.8935 454.7942,999.831 452.9192,1003.8935 451.6692,1003.2685 452.2942,999.5185"/>
    <polyline points="459.1692,1008.8935 458.5442,1011.706 461.6692,1012.0185"/>
    <polyline points="450.1067,987.956 437.6067,983.2685 437.9192,987.331 441.9817,993.581"/>
    <polyline points="536.9318,1005.1435 537.8693,1006.706 539.7443,1006.706 541.6193,999.5185 542.8693,993.8935 542.8693,980.1435 544.7443,980.7685 555.3693,997.331"/>
    <polyline points="565.6818,1004.831 573.1818,1001.081 584.7443,1002.0185 590.9943,1004.831 597.2443,1009.206 602.2443,1015.7685 604.4318,1019.831 605.0568,1027.0185 603.4943,1037.331 590.6818,1051.3935 579.1193,1057.6435 568.8068,1059.831 555.3693,1053.2685 548.8068,1047.956 544.4318,1039.831 541.9318,1030.7685 541.9318,1022.6435 545.3693,1013.2685 549.1193,1008.8935 552.8693,1006.3935 557.8693,1004.831 575.3693,1005.456"/>
    <polyline points="586.9318,999.206 591.9318,998.581 605.6818,992.0185 606.3068,1007.956 603.8068,1016.706 602.5568,1018.2685"/>
    <polyline points="582.2443,1034.206 580.9943,1037.956 575.3693,1037.6435 573.8068,1033.8935 573.8068,1027.6435 571.9318,1028.581 570.0568,1027.6435 571.6193,1030.1435"/>
    <polyline points="572.2443,1028.8935 572.2443,1037.6435 570.0568,1039.206 563.1818,1039.5185"/>
    <polyline points="671.257,1004.206 665.632,991.706 664.0695,985.456 663.757,980.1435 668.4445,981.081 677.1945,988.2685 685.9445,993.2685 688.4445,996.3935"/>
    <polyline points="691.257,996.3935 704.0695,994.5185 712.1945,994.831 718.4445,996.081 721.5695,997.331 726.257,1001.706 732.1945,1012.331 734.382,1026.081 732.507,1035.1435 729.382,1041.081 721.5695,1050.1435 712.1945,1057.956 707.507,1059.831 700.007,1059.831 681.257,1053.2685 668.757,1046.706 664.382,1043.2685 659.0695,1035.7685 656.882,1029.5185 656.882,1022.331 658.132,1016.706 662.8195,1009.206 666.5695,1005.7685 670.9445,1002.6435 677.1945,999.831 690.007,995.456 695.632,994.5185"/>
    <polyline points="710.632,994.5185 712.8195,989.831 722.507,980.456 724.6945,980.1435 727.1945,985.1435 726.5695,999.5185"/>
    <polyline points="699.6945,1035.7685 700.3195,1043.2685 702.1945,1048.2685 705.3195,1049.206 710.632,1044.5185 711.5695,1042.331"/>
    <polyline points="688.132,1030.456 691.257,1028.2685 695.632,1027.331 700.632,1027.331 702.8195,1028.8935 700.007,1038.581 690.632,1032.0185 688.4445,1029.5185"/>
  </g>
</svg>
