<?xml version="1.0" encoding="utf-8" ?>
<svg xmlns="http://www.w3.org/2000/svg" xmlns:cc="http://creativecommons.org/ns" xmlns:dc="http://purl.org/dc/elements/1.1/" xmlns:ev="http://www.w3.org/2001/xml-events" xmlns:inkscape="http://www.inkscape.org/namespaces/inkscape" xmlns:rdf="http://www.w3.org/1999/02/22-rdf-syntax-ns" xmlns:sodipodi="http://sodipodi.sourceforge.net/DTD/sodipodi-0.dtd" xmlns:xlink="http://www.w3.org/1999/xlink" baseProfile="tiny" height="29.7cm" version="1.2" viewBox="0 0 793.7007874015749 1122.5196850393702" width="21.0cm">
  <metadata>
    <rdf:RDF>
      <cc:Work>
        <dc:format>image/svg+xml</dc:format>
        <dc:source>Generated with vsketch</dc:source>
        <dc:date>2025-11-15T12:41:10.036524</dc:date>
      </cc:Work>
    </rdf:RDF>
  </metadata>
  <defs/>
  <g fill="none" id="layer1" inkscape:groupmode="layer" inkscape:label="1" stroke="#0000ff" style="display:inline">
    <polygon points="173.7764,172.307 211.5717,172.307 211.5717,134.5118 173.7764,134.5118"/>
    <polygon points="173.7708,210.0057 211.5645,209.667 211.2258,171.8733 173.4321,172.212"/>
    <polygon points="213.3,211.3361 175.5078,210.8563 175.0279,248.6485 212.8201,249.1284"/>
    <polygon points="213.4517,246.6705 214.8752,284.439 252.6437,283.0155 251.2202,245.2471"/>
    <polygon points="211.2871,247.9689 249.0676,249.0261 250.1247,211.2456 212.3443,210.1884"/>
    <polygon points="213.4751,285.5855 175.6892,286.4244 176.5282,324.2104 214.3141,323.3714"/>
    <polygon points="210.7242,286.9067 210.021,249.118 172.2323,249.8212 172.9355,287.6099"/>
    <polygon points="211.659,322.6557 249.4472,321.9261 248.7176,284.1379 210.9294,284.8675"/>
    <polygon points="174.7704,323.428 171.6684,361.0957 209.3362,364.1977 212.4381,326.5299"/>
    <polygon points="211.229,363.6771 217.4792,400.952 254.7541,394.7018 248.5039,357.4269"/>
    <polygon points="210.7156,366.3461 173.072,362.9637 169.6895,400.6073 207.3332,403.9898"/>
    <polygon points="252.0158,358.9813 249.3912,321.2773 211.6872,323.9019 214.3118,361.6059"/>
    <polygon points="253.3341,366.5689 256.5064,404.2309 294.1683,401.0586 290.9961,363.3967"/>
    <polygon points="249.085,394.3201 245.0814,431.9028 282.6641,435.9063 286.6676,398.3237"/>
    <polygon points="291.4812,399.8098 329.0119,395.3461 324.5482,357.8154 287.0175,362.2791"/>
    <polygon points="284.6742,427.2569 247.5941,434.5746 254.9117,471.6547 291.9918,464.3371"/>
    <polygon points="321.682,445.8504 284.4931,439.1072 277.7499,476.2961 314.9388,483.0393"/>
    <polygon points="328.3225,401.6585 290.5586,403.197 292.0972,440.961 329.8611,439.4224"/>
    <polygon points="320.1758,396.6374 322.9836,434.3282 360.6744,431.5205 357.8667,393.8297"/>
    <polygon points="361.4543,401.0608 362.662,363.2848 324.8861,362.0771 323.6783,399.853"/>
    <polygon points="362.3384,361.7461 359.1676,399.4081 396.8297,402.5789 400.0004,364.9169"/>
    <polygon points="397.3339,363.1735 434.9965,366.3372 438.1602,328.6746 400.4976,325.5109"/>
    <polygon points="398.6636,366.6735 402.6585,329.09 365.075,325.095 361.08,362.6786"/>
    <polygon points="439.2107,359.7404 401.602,363.4915 405.3531,401.1002 442.9618,397.3491"/>
    <polygon points="439.9901,362.2106 477.7686,361.0817 476.6396,323.3033 438.8612,324.4322"/>
    <polygon points="477.105,363.9605 439.3615,361.9816 437.3826,399.725 475.126,401.704"/>
    <polygon points="474.4659,395.1447 475.9197,432.912 513.687,431.4582 512.2332,393.6909"/>
    <polygon points="477.3144,433.5457 472.8104,396.0197 435.2845,400.5238 439.7885,438.0497"/>
    <polygon points="509.8171,433.9958 512.5502,471.6921 550.2465,468.9591 547.5135,431.2628"/>
    <polygon points="511.5286,437.7101 549.3019,436.4216 548.0134,398.6483 510.2401,399.9368"/>
    <polygon points="543.6678,438.2603 580.6722,445.9518 588.3636,408.9474 551.3592,401.2559"/>
    <polygon points="552.8932,470.7187 544.5077,507.5721 581.361,515.9575 589.7465,479.1042"/>
    <polygon points="547.0387,482.3603 510.0942,474.3862 502.1201,511.3307 539.0646,519.3048"/>
    <polygon points="591.261,475.3931 629.0501,474.7101 628.3671,436.921 590.578,437.604"/>
    <polygon points="593.107,468.1444 586.7381,430.8896 549.4833,437.2586 555.8523,474.5134"/>
    <polygon points="631.8351,466.4136 594.4548,471.999 600.0401,509.3793 637.4204,503.7939"/>
    <polygon points="623.2486,400.6449 624.5652,362.8726 586.7928,361.556 585.4763,399.3284"/>
    <polygon points="587.6397,398.4396 589.5948,436.1843 627.3395,434.2292 625.3843,396.4845"/>
    <polygon points="546.4702,398.1161 583.8527,403.6867 589.4233,366.3042 552.0408,360.7336"/>
    <polygon points="512.7234,403.7453 518.1513,366.3419 480.7478,360.9139 475.3199,398.3174"/>
    <polygon points="515.4575,360.991 516.8763,398.7596 554.6449,397.3408 553.2261,359.5722"/>
    <polygon points="552.7675,329.8648 515.3372,324.6252 510.0976,362.0555 547.5279,367.2951"/>
    <polygon points="553.6826,326.3798 554.5081,288.5935 516.7218,287.7681 515.8964,325.5543"/>
    <polygon points="553.7155,321.9443 558.3394,359.4556 595.8508,354.8317 591.2268,317.3203"/>
    <polygon points="584.9305,326.7416 586.4434,288.9766 548.6784,287.4637 547.1655,325.2287"/>
    <polygon points="588.2117,286.1733 586.6146,323.9348 624.3761,325.5319 625.9732,287.7704"/>
    <polygon points="594.004,285.2073 631.6485,281.8351 628.2763,244.1905 590.6317,247.5628"/>
    <polygon points="587.2591,249.2785 589.5173,211.5508 551.7896,209.2925 549.5313,247.0203"/>
    <polygon points="551.4485,246.8418 552.1717,284.6302 589.96,283.907 589.2368,246.1186"/>
    <polygon points="514.5875,246.5237 476.8846,249.1644 479.5253,286.8673 517.2282,284.2266"/>
    <polygon points="512.1623,247.8192 549.897,249.9589 552.0366,212.2242 514.302,210.0846"/>
    <polygon points="478.2852,249.3465 440.4979,248.5714 439.7228,286.3587 477.5101,287.1339"/>
    <polygon points="478.184,246.5157 476.0749,208.7793 438.3385,210.8884 440.4476,248.6248"/>
    <polygon points="475.8714,209.6505 477.8915,247.3918 515.6328,245.3717 513.6127,207.6304"/>
    <polygon points="437.9527,209.8921 475.7479,209.8312 475.687,172.0359 437.8917,172.0969"/>
    <polygon points="439.018,244.7407 401.3052,247.2351 403.7996,284.948 441.5124,282.4536"/>
    <polygon points="399.555,246.555 437.3063,248.3792 439.1304,210.628 401.3792,208.8038"/>
    <polygon points="363.9954,248.5532 401.785,247.9024 401.1342,210.1127 363.3445,210.7635"/>
    <polygon points="363.3509,286.8379 363.1752,249.0431 325.3804,249.2188 325.5561,287.0136"/>
    <polygon points="361.3154,320.5314 399.0236,323.0956 401.5879,285.3874 363.8797,282.8232"/>
    <polygon points="363.6934,321.5478 325.9273,323.0347 327.4143,360.8007 365.1803,359.3138"/>
    <polygon points="399.4139,287.8455 401.0772,250.0869 363.3186,248.4235 361.6552,286.1822"/>
    <polygon points="434.2274,322.7022 471.9466,325.0988 474.3432,287.3796 436.624,284.983"/>
    <polygon points="437.9341,323.6467 438.5212,285.856 400.7305,285.2689 400.1434,323.0596"/>
    <polygon points="478.744,320.3292 481.6109,358.0156 519.2972,355.1487 516.4304,317.4623"/>
    <polygon points="474.6491,285.7539 476.1172,323.5207 513.884,322.0525 512.4158,284.2858"/>
    <polygon points="553.8098,286.0894 551.2187,248.383 513.5123,250.9741 516.1035,288.6805"/>
    <polygon points="589.7853,210.5639 588.9748,248.3505 626.7613,249.161 627.5719,211.3744"/>
    <polygon points="625.8712,211.2056 626.9898,173.4269 589.2111,172.3083 588.0924,210.087"/>
    <polygon points="589.5244,172.307 589.5244,134.5118 551.7291,134.5118 551.7291,172.307"/>
    <polygon points="551.7291,172.307 551.7291,134.5118 513.9339,134.5118 513.9339,172.307"/>
    <polygon points="551.2073,172.2378 550.6188,210.0285 588.4095,210.617 588.998,172.8263"/>
    <polygon points="514.1017,173.503 476.3232,172.3792 475.1994,210.1578 512.9779,211.2816"/>
    <polygon points="514.0099,210.5077 551.8017,211.0178 552.3119,173.2259 514.52,172.7158"/>
    <polygon points="513.9339,134.5118 476.1386,134.5118 476.1386,172.307 513.9339,172.307"/>
    <polygon points="476.1386,134.5118 438.3433,134.5118 438.3433,172.307 476.1386,172.307"/>
    <polygon points="400.548,172.307 438.3433,172.307 438.3433,134.5118 400.548,134.5118"/>
    <polygon points="400.3773,172.6316 362.5854,172.1316 362.0853,209.9236 399.8773,210.4236"/>
    <polygon points="400.4204,172.7026 400.3392,210.4978 438.1344,210.579 438.2156,172.7838"/>
    <polygon points="362.7528,134.5118 362.7528,172.307 400.548,172.307 400.548,134.5118"/>
    <polygon points="324.9575,172.307 362.7528,172.307 362.7528,134.5118 324.9575,134.5118"/>
    <polygon points="324.283,210.1785 322.2933,247.9213 360.0361,249.9111 362.0259,212.1682"/>
    <polygon points="325.3996,210.6863 363.1896,210.0543 362.5576,172.2643 324.7676,172.8963"/>
    <polygon points="288.1605,210.5157 325.9485,209.7722 325.2049,171.9842 287.4169,172.7278"/>
    <polygon points="286.5892,209.5429 285.0371,247.3063 322.8005,248.8584 324.3526,211.095"/>
    <polygon points="251.0716,209.8998 249.7566,247.6721 287.5289,248.9872 288.844,211.2148"/>
    <polygon points="249.5017,209.0442 287.2968,209.1565 287.4091,171.3614 249.614,171.2491"/>
    <polygon points="249.3669,172.307 287.1622,172.307 287.1622,134.5118 249.3669,134.5118"/>
    <polygon points="249.9497,171.8278 212.1555,172.1081 212.4358,209.9023 250.23,209.622"/>
    <polygon points="211.5717,172.307 249.3669,172.307 249.3669,134.5118 211.5717,134.5118"/>
    <polygon points="287.1622,134.5118 287.1622,172.307 324.9575,172.307 324.9575,134.5118"/>
    <polygon points="286.8375,247.6459 284.8808,285.3904 322.6254,287.3471 324.582,249.6025"/>
    <polygon points="283.0998,284.7908 285.616,247.0794 247.9046,244.5631 245.3884,282.2746"/>
    <polygon points="283.6698,319.9055 321.2361,324.0598 325.3904,286.4936 287.8241,282.3392"/>
    <polygon points="285.2008,323.772 247.4534,325.672 249.3534,363.4195 287.1009,361.5194"/>
    <polygon points="288.5089,324.2824 291.1594,361.9846 328.8616,359.3341 326.2112,321.6319"/>
    <polygon points="247.0851,289.1132 245.4826,326.8745 283.2439,328.477 284.8464,290.7157"/>
    <polygon points="325.5363,282.8766 329.8617,320.4236 367.4086,316.0982 363.0833,278.5512"/>
    <polygon points="402.5842,427.7044 365.5197,435.1008 372.916,472.1653 409.9805,464.7689"/>
    <polygon points="400.9522,434.7744 400.4946,472.5669 438.2871,473.0245 438.7448,435.232"/>
    <polygon points="399.6108,435.5594 401.8584,397.8311 364.13,395.5835 361.8825,433.3119"/>
    <polygon points="399.3357,437.8035 437.1309,437.7813 437.1087,399.9861 399.3135,400.0083"/>
    <polygon points="401.2714,471.5815 364.0168,477.952 370.3873,515.2066 407.6419,508.8361"/>
    <polygon points="395.6304,480.9 385.6975,517.3667 422.1642,527.2997 432.0971,490.833"/>
    <polygon points="401.6994,509.974 399.7344,547.7182 437.4786,549.6832 439.4436,511.939"/>
    <polygon points="439.6655,515.4528 477.2613,511.5746 473.3831,473.9788 435.7874,477.857"/>
    <polygon points="474.7335,509.1505 437.0609,512.193 440.1034,549.8656 477.776,546.8231"/>
    <polygon points="501.9423,517.5573 508.495,480.3344 471.2721,473.7816 464.7194,511.0046"/>
    <polygon points="514.9921,548.9286 552.7713,547.8274 551.6701,510.0482 513.8909,511.1494"/>
    <polygon points="516.9631,557.273 523.6786,520.0791 486.4847,513.3636 479.7692,550.5575"/>
    <polygon points="545.184,562.5139 508.8481,552.1126 498.4469,588.4485 534.7828,598.8498"/>
    <polygon points="585.6614,545.5841 548.13,550.0427 552.5886,587.5741 590.12,583.1155"/>
    <polygon points="589.8825,549.2846 592.0928,511.554 554.3622,509.3437 552.1519,547.0743"/>
    <polygon points="619.1941,554.2893 626.3796,517.1834 589.2737,509.9978 582.0882,547.1038"/>
    <polygon points="620.336,552.4643 582.5409,552.596 582.6726,590.391 620.4676,590.2594"/>
    <polygon points="587.4869,583.2536 590.3282,620.942 628.0165,618.1007 625.1752,580.4123"/>
    <polygon points="579.0751,626.0247 588.3737,589.3912 551.7401,580.0926 542.4415,616.7261"/>
    <polygon points="587.8842,629.1092 573.6687,664.1293 608.6888,678.3448 622.9043,643.3247"/>
    <polygon points="554.8329,625.9582 540.6476,660.9905 575.6799,675.1758 589.8652,640.1435"/>
    <polygon points="554.4787,662.4219 542.1162,698.1382 577.8324,710.5007 590.1949,674.7844"/>
    <polygon points="518.234,659.739 555.8573,663.3408 559.4591,625.7175 521.8358,622.1157"/>
    <polygon points="514.4933,663.2617 500.83,698.5008 536.0691,712.1641 549.7325,676.925"/>
    <polygon points="513.8987,690.4166 478.2982,703.1086 490.9903,738.7091 526.5908,726.0171"/>
    <polygon points="523.1211,695.7835 515.1035,658.8484 478.1684,666.866 486.186,703.8011"/>
    <polygon points="546.8546,733.6882 584.5211,736.8053 587.6382,699.1387 549.9716,696.0217"/>
    <polygon points="543.6155,743.1871 506.6851,735.1481 498.646,772.0785 535.5764,780.1176"/>
    <polygon points="542.3287,743.6314 544.2071,781.38 581.9557,779.5016 580.0772,741.753"/>
    <polygon points="520.3734,744.9829 557.7814,739.5861 552.3846,702.1781 514.9766,707.575"/>
    <polygon points="492.5059,776.6161 527.5455,762.4489 513.3784,727.4093 478.3388,741.5765"/>
    <polygon points="515.0786,794.9873 506.7575,758.1194 469.8896,766.4404 478.2107,803.3083"/>
    <polygon points="503.805,810.7089 538.4047,825.919 553.6147,791.3193 519.015,776.1093"/>
    <polygon points="511.2817,816.2437 499.9695,852.3063 536.0322,863.6185 547.3444,827.5559"/>
    <polygon points="516.5135,836.9472 478.7204,837.3594 479.1327,875.1524 516.9257,874.7402"/>
    <polygon points="547.5621,847.6401 584.6298,855.0203 592.01,817.9526 554.9423,810.5724"/>
    <polygon points="556.8188,811.3799 593.9506,818.4309 601.0016,781.2991 563.8698,774.2481"/>
    <polygon points="589.6091,826.0589 554.4908,840.0299 568.4619,875.1482 603.5801,861.1771"/>
    <polygon points="607.8781,832.6897 622.5766,797.8697 587.7565,783.1712 573.058,817.9912"/>
    <polygon points="639.0621,837.8766 621.8988,804.2032 588.2253,821.3665 605.3886,855.04"/>
    <polygon points="584.9113,866.6967 551.8715,885.0503 570.2251,918.0901 603.2649,899.7366"/>
    <polygon points="578.3705,896.3389 611.1301,915.1881 629.9792,882.4285 597.2196,863.5793"/>
    <polygon points="571.1591,925.0205 603.2772,944.9431 623.1999,912.8251 591.0818,892.9024"/>
    <polygon points="607.8131,941.6743 570.1266,938.8091 567.2614,976.4956 604.9479,979.3609"/>
    <polygon points="605.5743,969.1886 627.0727,938.1032 595.9873,916.6048 574.4889,947.6902"/>
    <polygon points="530.5109,936.3728 513.6152,902.5642 479.8066,919.46 496.7024,953.2685"/>
    <polygon points="522.0936,928.7591 537.6979,894.3355 503.2743,878.7311 487.6699,913.1547"/>
    <polygon points="489.6969,948.4822 525.4885,960.6246 537.631,924.8329 501.8393,912.6905"/>
    <polygon points="455.9537,911.5822 442.449,876.2819 407.1488,889.7866 420.6534,925.0868"/>
    <polygon points="440.6885,921.0043 429.6476,957.1509 465.7943,968.1918 476.8352,932.0452"/>
    <polygon points="441.0165,930.5171 477.7876,921.7778 469.0483,885.0068 432.2773,893.7461"/>
    <polygon points="410.0701,943.5537 424.8368,978.3449 459.628,963.5783 444.8614,928.787"/>
    <polygon points="406.0363,957.4296 401.5945,919.8962 364.0612,924.338 368.503,961.8714"/>
    <polygon points="394.7293,926.5878 400.1159,889.1784 362.7065,883.7917 357.3198,921.2012"/>
    <polygon points="344.8874,888.5126 379.2118,904.3341 395.0332,870.0097 360.7088,854.1882"/>
    <polygon points="314.3775,900.0298 323.8386,936.6218 360.4306,927.1607 350.9695,890.5687"/>
    <polygon points="311.1002,893.7646 343.7822,874.7813 324.799,842.0992 292.1169,861.0825"/>
    <polygon points="320.982,928.3749 335.4799,893.4709 300.5758,878.9729 286.0779,913.877"/>
    <polygon points="323.491,953.7728 354.6695,975.1358 376.0326,943.9573 344.854,922.5942"/>
    <polygon points="325.5058,988.0079 332.4672,950.8593 295.3186,943.8979 288.3572,981.0466"/>
    <polygon points="250.8383,960.3329 288.5106,957.286 285.4636,919.6137 247.7914,922.6607"/>
    <polygon points="219.9376,967.7064 257.6845,969.6189 259.597,931.8721 221.8501,929.9596"/>
    <polygon points="206.0544,933.1022 168.7551,926.9989 162.6519,964.2981 199.9511,970.4014"/>
    <polygon points="216.4981,901.9141 184.9308,881.1299 164.1465,912.6972 195.7139,933.4815"/>
    <polygon points="242.3499,883.3292 206.829,896.2424 219.7422,931.7633 255.263,918.8501"/>
    <polygon points="233.7506,874.8976 223.536,838.5088 187.1472,848.7234 197.3618,885.1122"/>
    <polygon points="238.2685,858.3916 203.2798,844.0992 188.9873,879.0879 223.976,893.3803"/>
    <polygon points="256.9126,838.6348 239.4209,805.1307 205.9168,822.6224 223.4085,856.1265"/>
    <polygon points="269.8378,853.0601 303.4356,835.7491 286.1245,802.1513 252.5267,819.4623"/>
    <polygon points="276.2037,858.2865 309.1692,876.7732 327.6559,843.8077 294.6904,825.321"/>
    <polygon points="254.673,814.7244 289.9511,801.1618 276.3885,765.8838 241.1105,779.4463"/>
    <polygon points="223.6888,808.5008 215.4044,771.6246 178.5282,779.909 186.8126,816.7852"/>
    <polygon points="240.3612,777.8881 277.5801,784.4635 284.1554,747.2445 246.9365,740.6692"/>
    <polygon points="247.0755,756.8427 212.1056,742.5043 197.7672,777.4742 232.7371,791.8126"/>
    <polygon points="241.6477,750.7315 208.5782,769.0314 226.878,802.1009 259.9476,783.8011"/>
    <polygon points="236.3997,732.2508 272.413,720.7822 260.9444,684.7689 224.9312,696.2375"/>
    <polygon points="222.6254,696.6905 259.6641,689.1661 252.1398,652.1274 215.101,659.6517"/>
    <polygon points="168.0077,709.254 205.7891,710.2758 206.8109,672.4943 169.0294,671.4725"/>
    <polygon points="162.9543,704.7042 149.7863,740.1314 185.2136,753.2993 198.3815,717.8721"/>
    <polygon points="171.3621,742.8465 176.9938,780.2198 214.3671,774.5881 208.7354,737.2148"/>
    <polygon points="172.215,808.7293 163.632,845.5372 200.4398,854.1201 209.0228,817.3123"/>
    <polygon points="290.6448,787.8083 308.5382,821.0996 341.8295,803.2062 323.9361,769.9149"/>
    <polygon points="326.0114,779.5264 313.7972,815.2937 349.5644,827.5079 361.7786,791.7407"/>
    <polygon points="334.3815,758.8127 321.4998,723.2804 285.9675,736.162 298.8491,771.6944"/>
    <polygon points="330.2451,732.4631 366.8366,723.0003 357.3738,686.4088 320.7823,695.8716"/>
    <polygon points="313.298,713.0071 325.4961,677.2343 289.7233,665.0362 277.5253,700.809"/>
    <polygon points="330.2543,698.582 293.1991,706.0246 300.6417,743.0799 337.697,735.6372"/>
    <polygon points="307.3369,684.2612 292.1954,649.6315 257.5657,664.7729 272.7072,699.4027"/>
    <polygon points="324.7722,667.4835 315.4938,704.1222 352.1325,713.4006 361.4109,676.7619"/>
    <polygon points="335.4688,631.8095 331.7621,669.4226 369.3751,673.1293 373.0819,635.5162"/>
    <polygon points="355.7766,630.8128 362.1385,593.5568 324.8825,587.1949 318.5206,624.4509"/>
    <polygon points="401.344,648.6241 391.071,612.2518 354.6987,622.5248 364.9717,658.8971"/>
    <polygon points="406.0833,688.6556 398.4174,651.646 361.4077,659.3119 369.0736,696.3215"/>
    <polygon points="426.4713,703.7602 462.2127,716.0499 474.5024,680.3086 438.761,668.0189"/>
    <polygon points="432.8228,678.8202 396.9896,666.8008 384.9703,702.634 420.8035,714.6534"/>
    <polygon points="444.0305,665.9698 481.8244,666.2949 482.1495,628.501 444.3557,628.1759"/>
    <polygon points="470.5478,621.0758 508.3104,622.6473 509.8819,584.8847 472.1193,583.3132"/>
    <polygon points="506.8525,630.5252 544.5881,632.6471 546.71,594.9114 508.9744,592.7895"/>
    <polygon points="516.9303,628.9447 480.5139,618.8288 470.398,655.2452 506.8144,665.361"/>
    <polygon points="484.8649,582.3307 521.2871,572.2359 511.1922,535.8136 474.77,545.9085"/>
    <polygon points="442.7073,582.2948 440.3759,544.5715 402.6526,546.9028 404.984,584.6261"/>
    <polygon points="439.888,588.7406 437.8975,626.4834 475.6403,628.474 477.6309,590.7311"/>
    <polygon points="428.7453,615.3085 391.8393,623.4588 399.9897,660.3649 436.8957,652.2145"/>
    <polygon points="400.4712,586.2199 397.4163,623.8915 435.0879,626.9464 438.1428,589.2747"/>
    <polygon points="404.555,582.1973 399.357,544.7611 361.9209,549.9591 367.1189,587.3952"/>
    <polygon points="391.5872,596.5667 355.57,585.1104 344.1138,621.1276 380.1309,632.5839"/>
    <polygon points="397.6247,558.4925 402.1292,520.9666 364.6033,516.4622 360.0988,553.988"/>
    <polygon points="362.3212,548.6096 326.0566,559.2568 336.7038,595.5214 372.9684,584.8742"/>
    <polygon points="326.5151,552.8098 363.9319,547.4749 358.597,510.058 321.1802,515.393"/>
    <polygon points="319.686,513.2494 324.1046,475.7133 286.5685,471.2948 282.1499,508.8309"/>
    <polygon points="332.0387,512.025 369.5512,507.4102 364.9364,469.8977 327.4239,474.5125"/>
    <polygon points="291.4188,511.6789 301.311,548.1567 337.7888,538.2644 327.8966,501.7867"/>
    <polygon points="246.9009,547.06 284.311,552.4424 289.6934,515.0323 252.2833,509.6499"/>
    <polygon points="247.937,566.8317 211.4045,557.1435 201.7163,593.676 238.2488,603.3642"/>
    <polygon points="255.2307,592.7239 293.0159,593.5985 293.8905,555.8133 256.1053,554.9388"/>
    <polygon points="292.9139,585.6564 330.7034,584.995 330.042,547.2055 292.2526,547.8669"/>
    <polygon points="289.0823,624.7126 288.368,662.5012 326.1565,663.2155 326.8709,625.427"/>
    <polygon points="280.8322,627.5548 318.6246,628.0227 319.0925,590.2303 281.3001,589.7624"/>
    <polygon points="284.4587,659.1184 280.4576,621.5355 242.8747,625.5366 246.8758,663.1195"/>
    <polygon points="247.8164,630.5346 284.8954,623.2113 277.572,586.1323 240.493,593.4556"/>
    <polygon points="215.3051,615.2308 203.4664,579.3375 167.5731,591.1762 179.4119,627.0695"/>
    <polygon points="209.5931,629.5528 219.1186,666.128 255.6938,656.6025 246.1683,620.0273"/>
    <polygon points="215.4844,587.5094 205.9389,624.0794 242.509,633.6249 252.0545,597.0549"/>
    <polygon points="216.7101,551.4712 215.5034,513.6952 177.7274,514.9018 178.9341,552.6779"/>
    <polygon points="225.1235,546.0515 261.9524,537.5594 253.4603,500.7305 216.6314,509.2226"/>
    <polygon points="208.0926,514.75 210.2762,477.0178 172.5441,474.8342 170.3604,512.5663"/>
    <polygon points="204.6034,475.586 242.0673,480.5801 247.0613,443.1162 209.5974,438.1221"/>
    <polygon points="210.5412,435.3946 248.1924,438.6916 251.4894,401.0404 213.8382,397.7434"/>
    <polygon points="169.9152,441.4335 167.8695,479.1734 205.6094,481.219 207.6551,443.4792"/>
    <polygon points="173.4923,395.3473 172.2012,433.1205 209.9744,434.4115 211.2655,396.6383"/>
    <polygon points="251.5259,467.9443 214.4812,475.4392 221.9761,512.4839 259.0208,504.989"/>
    <polygon points="246.2537,473.8327 243.3852,511.519 281.0715,514.3874 283.9399,476.7012"/>
    <polygon points="164.2007,553.5535 168.8029,591.0676 206.3169,586.4654 201.7148,548.9514"/>
    <polygon points="164.1015,659.4373 199.9884,671.2953 211.8464,635.4084 175.9595,623.5504"/>
    <polygon points="286.763,712.3527 250.2358,702.6445 240.5276,739.1717 277.0548,748.8798"/>
    <polygon points="359.5774,741.7297 342.2118,775.2993 375.7815,792.6649 393.147,759.0953"/>
    <polygon points="371.9911,737.5547 409.7551,736.0195 408.2199,698.2554 370.4558,699.7906"/>
    <polygon points="360.0238,772.7912 360.0422,734.996 322.2469,734.9776 322.2285,772.7728"/>
    <polygon points="356.2932,783.6132 339.0052,817.2229 372.6149,834.5108 389.9028,800.9012"/>
    <polygon points="388.8067,779.2355 402.6121,814.4193 437.7958,800.6139 423.9904,765.4302"/>
    <polygon points="417.3019,780.2445 454.7456,775.1015 449.6026,737.6578 412.1589,742.8008"/>
    <polygon points="424.8527,750.8503 432.7316,713.8854 395.7667,706.0065 387.8878,742.9714"/>
    <polygon points="452.6253,773.4978 489.3023,764.3721 480.1765,727.695 443.4995,736.8208"/>
    <polygon points="472.1083,812.0442 434.3977,814.5731 436.9267,852.2837 474.6372,849.7547"/>
    <polygon points="476.8263,815.3697 475.2833,853.1335 513.0471,854.6766 514.5901,816.9128"/>
    <polygon points="447.1001,825.5864 458.7112,789.6189 422.7437,778.0077 411.1325,813.9753"/>
    <polygon points="429.3308,857.444 392.2717,850.0206 384.8482,887.0797 421.9073,894.5031"/>
    <polygon points="422.6111,863.5532 438.3978,829.2128 404.0575,813.426 388.2707,847.7664"/>
    <polygon points="369.9405,852.5133 332.1557,853.401 333.0434,891.1859 370.8283,890.2982"/>
    <polygon points="400.449,805.5301 362.6581,806.108 363.236,843.8988 401.0269,843.3209"/>
    <polygon points="326.7262,813.7924 327.1527,851.5853 364.9456,851.1588 364.5191,813.3659"/>
    <polygon points="275.3689,912.3786 289.6511,877.3857 254.6583,863.1035 240.376,898.0963"/>
    <polygon points="256.5438,921.0084 294.3371,921.3961 294.7248,883.6028 256.9315,883.2151"/>
    <polygon points="477.9426,891.538 486.4066,928.3733 523.242,919.9094 514.778,883.074"/>
    <polygon points="488.8322,883.9077 483.7062,846.4617 446.2602,851.5876 451.3861,889.0336"/>
    <polygon points="513.2586,881.6465 550.9727,884.1226 553.4488,846.4085 515.7347,843.9324"/>
    <polygon points="479.4607,724.8111 467.2353,689.0477 431.4719,701.2731 443.6972,737.0365"/>
    <polygon points="588.6105,734.809 589.0525,772.6017 626.8452,772.1597 626.4032,734.367"/>
    <polygon points="595.0145,702.0011 608.6737,737.2418 643.9144,723.5826 630.2552,688.3419"/>
    <polygon points="625.7549,666.7198 590.1287,654.1 577.5089,689.7262 613.1351,702.346"/>
    <polygon points="469.4151,542.8348 432.5175,551.0231 440.7057,587.9207 477.6034,579.7324"/>
    <polygon points="467.1115,478.7749 475.0174,441.8158 438.0583,433.9098 430.1523,470.869"/>
    <polygon points="488.3284,474.9082 525.2727,466.9332 517.2977,429.9889 480.3534,437.9639"/>
    <polygon points="367.5371,464.3316 361.6466,426.9981 324.3132,432.8886 330.2037,470.2221"/>
    <polygon points="627.0256,363.107 626.5017,325.3154 588.71,325.8393 589.234,363.6309"/>
    <polygon points="589.5244,134.5118 589.5244,172.307 627.3197,172.307 627.3197,134.5118"/>
  </g>
</svg>
